<?xml version="1.0" encoding="UTF-8" standalone="no"?>
<svg
   xmlns:dc="http://purl.org/dc/elements/1.1/"
   xmlns:cc="http://creativecommons.org/ns#"
   xmlns:rdf="http://www.w3.org/1999/02/22-rdf-syntax-ns#"
   xmlns:svg="http://www.w3.org/2000/svg"
   xmlns="http://www.w3.org/2000/svg"
   xmlns:sodipodi="http://sodipodi.sourceforge.net/DTD/sodipodi-0.dtd"
   xmlns:inkscape="http://www.inkscape.org/namespaces/inkscape"
   viewBox="0 0 709.33331 376"
   height="376"
   width="709.33331"
   xml:space="preserve"
   id="svg2"
   version="1.1"
   sodipodi:docname="labo_1_multimedianetwerken_datatransmissie_diagram.svg"
   inkscape:version="0.92.4 (5da689c313, 2019-01-14)"><sodipodi:namedview
     pagecolor="#ffffff"
     bordercolor="#666666"
     borderopacity="1"
     objecttolerance="10"
     gridtolerance="10"
     guidetolerance="10"
     inkscape:pageopacity="0"
     inkscape:pageshadow="2"
     inkscape:window-width="1920"
     inkscape:window-height="986"
     id="namedview203"
     showgrid="false"
     inkscape:zoom="0.55263159"
     inkscape:cx="181.03502"
     inkscape:cy="394.97229"
     inkscape:window-x="-11"
     inkscape:window-y="-11"
     inkscape:window-maximized="1"
     inkscape:current-layer="svg2" /><metadata
     id="metadata8"><rdf:RDF><cc:Work
         rdf:about=""><dc:format>image/svg+xml</dc:format><dc:type
           rdf:resource="http://purl.org/dc/dcmitype/StillImage" /></cc:Work></rdf:RDF></metadata><defs
     id="defs6"><clipPath
       id="clipPath30"
       clipPathUnits="userSpaceOnUse"><path
         style="clip-rule:evenodd"
         id="path28"
         d="M 0,0 H 532 V 282 H 0 Z" /></clipPath><clipPath
       id="clipPath46"
       clipPathUnits="userSpaceOnUse"><path
         style="clip-rule:evenodd"
         id="path44"
         d="M 0,0 H 532 V 282 H 0 Z" /></clipPath><clipPath
       id="clipPath52"
       clipPathUnits="userSpaceOnUse"><path
         style="clip-rule:evenodd"
         id="path50"
         d="M 0,0 H 532 V 282 H 0 Z" /></clipPath><clipPath
       id="clipPath364"
       clipPathUnits="userSpaceOnUse"><path
         style="clip-rule:evenodd"
         id="path362"
         d="M 0,0 H 532 V 282 H 0 Z" /></clipPath><clipPath
       id="clipPath376"
       clipPathUnits="userSpaceOnUse"><path
         style="clip-rule:evenodd"
         id="path374"
         d="M 0,0 H 532 V 282 H 0 Z" /></clipPath><clipPath
       id="clipPath382"
       clipPathUnits="userSpaceOnUse"><path
         style="clip-rule:evenodd"
         id="path380"
         d="M 0,0 H 532 V 282 H 0 Z" /></clipPath><clipPath
       id="clipPath396"
       clipPathUnits="userSpaceOnUse"><path
         style="clip-rule:evenodd"
         id="path394"
         d="M 0,0 H 532 V 282 H 0 Z" /></clipPath></defs><g
     id="g12"
     transform="matrix(1.3333333,0,0,1.3333333,0,9.4e-6)"><g
       id="g14"><g
         id="g16" /></g><g
       id="g18"><g
         id="g20" /><g
         id="g22" /></g><g
       id="g24"><g
         id="g26"
         clip-path="url(#clipPath30)"><g
           id="g32" /><g
           id="g34"><path
             inkscape:connector-curvature="0"
             d="M 0,0 H 532 V 282 H 0 Z"
             style="fill:#ffffff;fill-opacity:1;fill-rule:nonzero;stroke:none"
             id="path36" /></g><g
           id="g38" /></g></g><g
       id="g40"><g
         id="g42"
         clip-path="url(#clipPath46)"><g
           id="g48"
           clip-path="url(#clipPath52)"><g
             id="g54" /><g
             id="g56"
             transform="translate(0.5,0.5)"><path
               inkscape:connector-curvature="0"
               d="m 120,30 h 33.63"
               style="fill:none;stroke:#000000;stroke-width:1;stroke-linecap:butt;stroke-linejoin:miter;stroke-miterlimit:10;stroke-dasharray:none;stroke-opacity:1"
               id="path58" /></g><g
             id="g60"><path
               inkscape:connector-curvature="0"
               d="m 159.38,30.5 -7,3.5 1.75,-3.5 -1.75,-3.5 z"
               style="fill:#000000;fill-opacity:1;fill-rule:nonzero;stroke:none"
               id="path62" /></g><g
             id="g64"
             transform="translate(0.5,0.5)"><path
               inkscape:connector-curvature="0"
               d="m 158.88,30 -7,3.5 1.75,-3.5 -1.75,-3.5 z"
               style="fill:none;stroke:#000000;stroke-width:1;stroke-linecap:butt;stroke-linejoin:miter;stroke-miterlimit:10;stroke-dasharray:none;stroke-opacity:1"
               id="path66" /></g><g
             id="g68" /><g
             id="g70"
             transform="translate(0.5,0.5)" /><g
             id="g72"><path
               inkscape:connector-curvature="0"
               d="m 9.5,0.5 h 102 c 4.97057,0 9,4.0294351 9,9 v 42 c 0,4.970566 -4.02943,9 -9,9 H 9.5 c -4.9705649,0 -9,-4.029434 -9,-9 v -42 c 0,-4.9705649 4.0294351,-9 9,-9 z"
               style="fill:#ffffff;fill-opacity:1;fill-rule:nonzero;stroke:none"
               id="path74" /></g><g
             id="g76"
             transform="translate(0.5,0.5)"><path
               inkscape:connector-curvature="0"
               d="m 9,0 h 102 c 4.97057,0 9,4.0294351 9,9 v 42 c 0,4.970566 -4.02943,9 -9,9 H 9 C 4.0294351,60 0,55.970566 0,51 V 9 C 0,4.0294351 4.0294351,0 9,0 Z"
               style="fill:none;stroke:#000000;stroke-width:1;stroke-linecap:butt;stroke-linejoin:miter;stroke-miterlimit:10;stroke-dasharray:none;stroke-opacity:1"
               id="path78" /></g><g
             id="g80" /><g
             id="g82"
             transform="translate(8,24)"><g
               id="g84" /></g><g
             id="g86"><path
               inkscape:connector-curvature="0"
               d="m 10.177734,25.392578 h 1.177735 V 34 h -1.177735 z m 2.923829,2.332031 h 1.001953 v 0.890625 c 0.296875,-0.367187 0.611328,-0.630859 0.943359,-0.791015 0.332031,-0.160157 0.701172,-0.240235 1.107422,-0.240235 0.890625,0 1.492187,0.310547 1.804687,0.931641 0.171875,0.339844 0.257813,0.826172 0.257813,1.458984 V 34 h -1.072266 v -3.955078 c 0,-0.382813 -0.05664,-0.691406 -0.169922,-0.925781 -0.1875,-0.390625 -0.527343,-0.585938 -1.019531,-0.585938 -0.25,0 -0.455078,0.02539 -0.615234,0.07617 -0.289063,0.08594 -0.542969,0.257812 -0.761719,0.515625 -0.175781,0.207031 -0.290039,0.420898 -0.342774,0.641601 -0.05273,0.220704 -0.0791,0.536133 -0.0791,0.94629 v 3.287109 h -1.054687 v -6.275391 z m 7.164062,-1.916015 c 0.246094,-0.359375 0.720703,-0.539063 1.423828,-0.539063 0.06641,0 0.134766,0.002 0.205078,0.0059 0.07031,0.0039 0.150391,0.0098 0.240235,0.01758 v 0.960937 c -0.109375,-0.0078 -0.188477,-0.0127 -0.237305,-0.01465 -0.04883,-0.002 -0.09473,-0.0029 -0.137695,-0.0029 -0.320313,0 -0.511719,0.08301 -0.574219,0.249023 -0.0625,0.166016 -0.09375,0.588868 -0.09375,1.268555 h 1.042969 v 0.832031 h -1.054688 v 5.414063 h -1.042969 v -5.414063 h -0.873047 v -0.832031 h 0.873047 v -0.984375 c 0.01563,-0.4375 0.0918,-0.757812 0.228516,-0.960937 z m 6.764648,6.717773 c 0.259766,-0.529297 0.389649,-1.118164 0.389649,-1.766601 0,-0.585938 -0.09375,-1.0625 -0.28125,-1.429688 -0.296875,-0.578125 -0.808594,-0.867187 -1.535156,-0.867187 -0.644532,0 -1.113282,0.246093 -1.40625,0.738281 -0.292969,0.492187 -0.439454,1.085937 -0.439454,1.78125 0,0.667969 0.146485,1.224609 0.439454,1.669922 0.292968,0.445312 0.757812,0.667969 1.394531,0.667969 0.699219,0 1.178711,-0.264649 1.438476,-0.793946 z m 0.653321,-4.174805 c 0.558593,0.539063 0.83789,1.332032 0.83789,2.378907 0,1.011718 -0.246093,1.847656 -0.738281,2.507812 -0.492187,0.660156 -1.255859,0.990235 -2.291016,0.990235 -0.863281,0 -1.548828,-0.291993 -2.05664,-0.875977 C 22.927734,32.768555 22.673828,31.984375 22.673828,31 c 0,-1.054688 0.267578,-1.894531 0.802734,-2.519531 0.535157,-0.625 1.253907,-0.9375 2.15625,-0.9375 0.808594,0 1.492188,0.269531 2.050782,0.808593 z m 2.11914,-0.626953 h 1.001953 v 1.083985 c 0.08203,-0.210938 0.283204,-0.467774 0.603516,-0.770508 0.320313,-0.302735 0.689453,-0.454102 1.107422,-0.454102 0.01953,0 0.05273,0.002 0.09961,0.0059 0.04687,0.0039 0.126953,0.01172 0.240235,0.02344 v 1.113281 c -0.0625,-0.01172 -0.120117,-0.01953 -0.172852,-0.02344 -0.05273,-0.0039 -0.110351,-0.0059 -0.172851,-0.0059 -0.53125,0 -0.939454,0.170898 -1.22461,0.512695 C 31,29.551758 30.857422,29.945312 30.857422,30.390625 V 34 h -1.054688 z m 3.955078,0 h 1.042969 v 0.890625 c 0.25,-0.308593 0.476563,-0.533203 0.679688,-0.673828 0.347656,-0.238281 0.742187,-0.357422 1.183593,-0.357422 0.5,0 0.902344,0.123047 1.207032,0.369141 0.171875,0.140625 0.328125,0.347656 0.46875,0.621094 0.234375,-0.335938 0.509765,-0.584961 0.826172,-0.747071 0.316406,-0.162109 0.671875,-0.243164 1.066406,-0.243164 0.84375,0 1.417969,0.304688 1.722656,0.914063 0.164063,0.328125 0.246094,0.769531 0.246094,1.324219 V 34 h -1.095703 v -4.359375 c 0,-0.417969 -0.104493,-0.705078 -0.313477,-0.861328 -0.208984,-0.15625 -0.463867,-0.234375 -0.764648,-0.234375 -0.414063,0 -0.770508,0.138672 -1.069336,0.416015 -0.298828,0.277344 -0.448242,0.740235 -0.448242,1.388672 V 34 H 37.4375 v -4.095703 c 0,-0.425781 -0.05078,-0.736328 -0.152344,-0.931641 -0.160156,-0.292969 -0.458984,-0.439453 -0.896484,-0.439453 -0.398438,0 -0.760742,0.154297 -1.086914,0.462891 -0.326172,0.308593 -0.489258,0.867187 -0.489258,1.675781 V 34 h -1.054688 z m 11.126954,5.326172 c 0.222656,0.175782 0.486328,0.263672 0.791015,0.263672 0.371094,0 0.730469,-0.08594 1.078125,-0.257812 0.585938,-0.285157 0.878907,-0.751954 0.878907,-1.400391 v -0.849609 c -0.128907,0.08203 -0.294922,0.15039 -0.498047,0.205078 -0.203125,0.05469 -0.402344,0.09375 -0.597657,0.117187 l -0.638672,0.08203 c -0.382812,0.05078 -0.669921,0.13086 -0.861328,0.240235 -0.324218,0.183594 -0.486328,0.476562 -0.486328,0.878906 0,0.304688 0.111328,0.544922 0.333985,0.720703 z m 2.220703,-2.853515 c 0.242187,-0.03125 0.404297,-0.132813 0.486328,-0.304688 0.04687,-0.09375 0.07031,-0.228516 0.07031,-0.404297 0,-0.359375 -0.127929,-0.620117 -0.383789,-0.782226 -0.255859,-0.16211 -0.62207,-0.243164 -1.098633,-0.243164 -0.550781,0 -0.941406,0.148437 -1.171875,0.445312 -0.128906,0.164063 -0.21289,0.408203 -0.251953,0.732422 h -0.984375 c 0.01953,-0.773438 0.270508,-1.311524 0.75293,-1.614258 0.482422,-0.302734 1.041992,-0.454101 1.678711,-0.454101 0.738281,0 1.337891,0.140625 1.798828,0.421875 0.457031,0.28125 0.685547,0.71875 0.685547,1.3125 v 3.615234 c 0,0.109375 0.02246,0.197266 0.06738,0.263672 0.04492,0.06641 0.139648,0.09961 0.284179,0.09961 0.04687,0 0.09961,-0.0029 0.158204,-0.0088 0.05859,-0.0059 0.121093,-0.01465 0.1875,-0.02637 v 0.779297 c -0.164063,0.04687 -0.289063,0.07617 -0.375,0.08789 -0.08594,0.01172 -0.203125,0.01758 -0.351563,0.01758 -0.363281,0 -0.626953,-0.128907 -0.791016,-0.386719 -0.08594,-0.136719 -0.146484,-0.330078 -0.18164,-0.580078 -0.214844,0.28125 -0.523438,0.52539 -0.925781,0.732422 -0.402344,0.207031 -0.845704,0.310546 -1.330079,0.310546 -0.582031,0 -1.057617,-0.176757 -1.426757,-0.530273 -0.369141,-0.353516 -0.553711,-0.795898 -0.553711,-1.327148 0,-0.582032 0.18164,-1.033204 0.544922,-1.353516 0.363281,-0.320313 0.839843,-0.517578 1.429687,-0.591797 l 1.681641,-0.210937 z M 50.625,25.972656 h 1.066406 v 1.751953 h 1.001953 v 0.861328 h -1.001953 v 4.095704 c 0,0.21875 0.07422,0.365234 0.222656,0.439453 0.08203,0.04297 0.218751,0.06445 0.410157,0.06445 0.05078,0 0.105468,-9.77e-4 0.164062,-0.0029 0.05859,-0.002 0.126953,-0.0068 0.205078,-0.01465 v 0.832031 c -0.121093,0.03516 -0.24707,0.06055 -0.377929,0.07617 -0.13086,0.01563 -0.272461,0.02344 -0.424805,0.02344 -0.492188,0 -0.826172,-0.125976 -1.001953,-0.377929 C 50.712891,33.469726 50.625,33.142578 50.625,32.740234 V 28.585937 H 49.775391 V 27.724609 H 50.625 Z m 3.117187,1.78125 h 1.072266 V 34 h -1.072266 z m 0,-2.361328 h 1.072266 v 1.195313 h -1.072266 z m 6.584961,7.133789 c 0.259766,-0.529297 0.389649,-1.118164 0.389649,-1.766601 0,-0.585938 -0.09375,-1.0625 -0.28125,-1.429688 -0.296875,-0.578125 -0.808594,-0.867187 -1.535156,-0.867187 -0.644532,0 -1.113282,0.246093 -1.40625,0.738281 -0.292969,0.492187 -0.439454,1.085937 -0.439454,1.78125 0,0.667969 0.146485,1.224609 0.439454,1.669922 0.292968,0.445312 0.757812,0.667969 1.394531,0.667969 0.699219,0 1.178711,-0.264649 1.438476,-0.793946 z m 0.653321,-4.174805 c 0.558593,0.539063 0.83789,1.332032 0.83789,2.378907 0,1.011718 -0.246093,1.847656 -0.738281,2.507812 -0.492187,0.660156 -1.255859,0.990235 -2.291016,0.990235 -0.863281,0 -1.548828,-0.291993 -2.05664,-0.875977 C 56.224609,32.768555 55.970703,31.984375 55.970703,31 c 0,-1.054688 0.267578,-1.894531 0.802734,-2.519531 0.535157,-0.625 1.253907,-0.9375 2.15625,-0.9375 0.808594,0 1.492188,0.269531 2.050782,0.808593 z m 2.089844,-0.626953 h 1.001953 v 0.890625 c 0.296875,-0.367187 0.611328,-0.630859 0.943359,-0.791015 0.332031,-0.160157 0.701172,-0.240235 1.107422,-0.240235 0.890625,0 1.492187,0.310547 1.804687,0.931641 0.171875,0.339844 0.257813,0.826172 0.257813,1.458984 V 34 h -1.072266 v -3.955078 c 0,-0.382813 -0.05664,-0.691406 -0.169922,-0.925781 -0.1875,-0.390625 -0.527343,-0.585938 -1.019531,-0.585938 -0.25,0 -0.455078,0.02539 -0.615234,0.07617 -0.289063,0.08594 -0.542969,0.257812 -0.761719,0.515625 -0.175781,0.207031 -0.290039,0.420898 -0.342773,0.641601 -0.05274,0.220704 -0.0791,0.536133 -0.0791,0.94629 v 3.287109 h -1.054687 v -6.275391 z m 10.902343,3.498047 c 0.02734,0.488281 0.142578,0.884766 0.345703,1.189453 0.386719,0.570313 1.06836,0.855469 2.044922,0.855469 0.4375,0 0.835938,-0.0625 1.195313,-0.1875 0.695312,-0.242187 1.042968,-0.675781 1.042968,-1.300781 0,-0.46875 -0.146484,-0.802735 -0.439453,-1.001953 -0.296875,-0.195313 -0.761718,-0.365235 -1.394531,-0.509766 l -1.166016,-0.263672 c -0.761718,-0.171875 -1.300781,-0.361328 -1.617187,-0.568359 -0.546875,-0.359375 -0.820313,-0.896485 -0.820313,-1.611328 0,-0.773438 0.267579,-1.408203 0.802735,-1.904297 0.535156,-0.496094 1.292969,-0.744141 2.273437,-0.744141 0.902344,0 1.668946,0.217774 2.299805,0.65332 0.630859,0.435547 0.946289,1.131836 0.946289,2.088868 h -1.095703 c -0.05859,-0.460938 -0.183594,-0.814453 -0.375,-1.060547 -0.355469,-0.449219 -0.958984,-0.673828 -1.810547,-0.673828 -0.6875,0 -1.181641,0.144531 -1.482422,0.433594 -0.300781,0.289062 -0.451172,0.624999 -0.451172,1.007812 0,0.421875 0.175782,0.730469 0.527344,0.925781 0.230469,0.125 0.751953,0.28125 1.564453,0.46875 l 1.207031,0.275391 c 0.582032,0.132812 1.03125,0.314453 1.347657,0.544922 0.546875,0.402343 0.820312,0.986328 0.820312,1.751953 0,0.953125 -0.346679,1.634766 -1.040039,2.044922 -0.693359,0.410156 -1.499023,0.615234 -2.416992,0.615234 -1.070313,0 -1.908203,-0.273437 -2.513672,-0.820312 -0.605469,-0.542969 -0.902344,-1.279297 -0.890625,-2.208985 z m 11.026367,1.303711 c 0.259766,-0.529297 0.389649,-1.118164 0.389649,-1.766601 0,-0.585938 -0.09375,-1.0625 -0.28125,-1.429688 -0.296875,-0.578125 -0.808594,-0.867187 -1.535156,-0.867187 -0.644532,0 -1.113282,0.246093 -1.40625,0.738281 -0.292969,0.492187 -0.439454,1.085937 -0.439454,1.78125 0,0.667969 0.146485,1.224609 0.439454,1.669922 0.292968,0.445312 0.757812,0.667969 1.394531,0.667969 0.699219,0 1.178711,-0.264649 1.438476,-0.793946 z m 0.653321,-4.174805 c 0.558593,0.539063 0.83789,1.332032 0.83789,2.378907 0,1.011718 -0.246093,1.847656 -0.738281,2.507812 -0.492187,0.660156 -1.255859,0.990235 -2.291016,0.990235 -0.863281,0 -1.548828,-0.291993 -2.05664,-0.875977 C 80.896484,32.768555 80.642578,31.984375 80.642578,31 c 0,-1.054688 0.267578,-1.894531 0.802734,-2.519531 0.535157,-0.625 1.253907,-0.9375 2.15625,-0.9375 0.808594,0 1.492188,0.269531 2.050782,0.808593 z m 3.144531,-0.626953 v 4.166016 c 0,0.320312 0.05078,0.582031 0.152344,0.785156 0.1875,0.375 0.537109,0.5625 1.048828,0.5625 0.734375,0 1.234375,-0.328125 1.5,-0.984375 0.144531,-0.351562 0.216797,-0.833984 0.216797,-1.447265 v -3.082032 h 1.054687 V 34 h -0.996094 l 0.01172,-0.925781 c -0.136719,0.238281 -0.30664,0.439453 -0.509765,0.603515 -0.402344,0.328125 -0.890625,0.492188 -1.464844,0.492188 -0.894531,0 -1.503906,-0.298828 -1.828125,-0.896485 -0.175781,-0.320312 -0.263672,-0.748046 -0.263672,-1.283203 v -4.265625 z m 5.646484,0 h 1.001953 v 1.083985 c 0.08203,-0.210938 0.283204,-0.467774 0.603516,-0.770508 0.320313,-0.302735 0.689453,-0.454102 1.107422,-0.454102 0.01953,0 0.05273,0.002 0.09961,0.0059 0.04687,0.0039 0.126953,0.01172 0.240235,0.02344 v 1.113281 c -0.0625,-0.01172 -0.120118,-0.01953 -0.172852,-0.02344 -0.05273,-0.0039 -0.110351,-0.0059 -0.172851,-0.0059 -0.53125,0 -0.939454,0.170898 -1.22461,0.512695 -0.285156,0.341797 -0.427734,0.735351 -0.427734,1.180664 v 3.609375 H 94.44336 v -6.275391 z m 8.100591,0.333985 c 0.44335,0.34375 0.70996,0.935547 0.7998,1.77539 h -1.02539 c -0.0625,-0.386718 -0.20508,-0.708008 -0.42773,-0.963867 -0.22266,-0.255859 -0.58008,-0.383789 -1.07227,-0.383789 -0.67188,0 -1.152344,0.328125 -1.441407,0.984375 -0.1875,0.425781 -0.28125,0.951172 -0.28125,1.576172 0,0.628906 0.132813,1.158203 0.398438,1.587891 0.265625,0.429687 0.683589,0.644531 1.253909,0.644531 0.4375,0 0.78418,-0.133789 1.04003,-0.401367 0.25587,-0.267579 0.43262,-0.633789 0.53028,-1.098633 h 1.02539 c -0.11719,0.832031 -0.41016,1.440429 -0.87891,1.825195 -0.46875,0.384766 -1.06836,0.577149 -1.79882,0.577149 -0.820317,0 -1.474614,-0.299805 -1.962895,-0.899415 -0.488281,-0.599609 -0.732422,-1.348632 -0.732422,-2.24707 0,-1.101562 0.267578,-1.958984 0.802734,-2.572265 0.535157,-0.613282 1.216797,-0.919922 2.044923,-0.919922 0.70703,0 1.28222,0.171875 1.72559,0.515625 z m 5.76269,-0.161133 c 0.41797,0.208984 0.73633,0.479492 0.95508,0.811523 0.21094,0.316407 0.35156,0.685547 0.42187,1.107422 0.0625,0.289063 0.0937,0.75 0.0937,1.382813 h -4.59961 c 0.0195,0.636718 0.16993,1.147461 0.45118,1.532226 0.28125,0.384766 0.71679,0.577149 1.30664,0.577149 0.55078,0 0.99023,-0.181641 1.31836,-0.544922 0.1875,-0.210938 0.32031,-0.455078 0.39843,-0.732422 h 1.03711 c -0.0273,0.230469 -0.11816,0.487305 -0.27246,0.770508 -0.15429,0.283203 -0.32715,0.514648 -0.51855,0.694336 -0.32031,0.3125 -0.7168,0.523437 -1.18946,0.632812 -0.2539,0.0625 -0.54101,0.09375 -0.86132,0.09375 -0.78125,0 -1.44336,-0.28418 -1.98633,-0.852539 -0.54297,-0.568359 -0.81445,-1.364258 -0.81445,-2.387695 0,-1.007813 0.27343,-1.826172 0.82031,-2.455078 0.54687,-0.628907 1.26172,-0.94336 2.14453,-0.94336 0.44531,0 0.87695,0.104492 1.29492,0.313477 z m 0.38672,2.463867 c -0.043,-0.457031 -0.14258,-0.822266 -0.29883,-1.095703 -0.28906,-0.507813 -0.77148,-0.761719 -1.44726,-0.761719 -0.48438,0 -0.89063,0.174805 -1.21875,0.524414 -0.32813,0.34961 -0.50196,0.793946 -0.52149,1.333008 z"
               style="fill:#000000;fill-opacity:1;fill-rule:nonzero;stroke:none"
               id="path88" /></g><g
             id="g90"
             transform="translate(8,24)"><g
               id="g92" /></g><g
             id="g94" /><g
             id="g96"
             transform="translate(0.5,0.5)"><path
               inkscape:connector-curvature="0"
               d="m 280,30 h 33.63"
               style="fill:none;stroke:#000000;stroke-width:1;stroke-linecap:butt;stroke-linejoin:miter;stroke-miterlimit:10;stroke-dasharray:none;stroke-opacity:1"
               id="path98" /></g><g
             id="g100"><path
               inkscape:connector-curvature="0"
               d="m 319.38,30.5 -7,3.5 1.75,-3.5 -1.75,-3.5 z"
               style="fill:#000000;fill-opacity:1;fill-rule:nonzero;stroke:none"
               id="path102" /></g><g
             id="g104"
             transform="translate(0.5,0.5)"><path
               inkscape:connector-curvature="0"
               d="m 318.88,30 -7,3.5 1.75,-3.5 -1.75,-3.5 z"
               style="fill:none;stroke:#000000;stroke-width:1;stroke-linecap:butt;stroke-linejoin:miter;stroke-miterlimit:10;stroke-dasharray:none;stroke-opacity:1"
               id="path106" /></g><g
             id="g108" /><g
             id="g110"
             transform="translate(0.5,0.5)" /><g
             id="g112"><path
               inkscape:connector-curvature="0"
               d="m 169.5,0.5 h 102 c 4.97055,0 9,4.0294351 9,9 v 42 c 0,4.970566 -4.02945,9 -9,9 h -102 c -4.97057,0 -9,-4.029434 -9,-9 v -42 c 0,-4.9705649 4.02943,-9 9,-9 z"
               style="fill:#ffffff;fill-opacity:1;fill-rule:nonzero;stroke:none"
               id="path114" /></g><g
             id="g116"
             transform="translate(0.5,0.5)"><path
               inkscape:connector-curvature="0"
               d="m 169,0 h 102 c 4.97055,0 9,4.0294351 9,9 v 42 c 0,4.970566 -4.02945,9 -9,9 H 169 c -4.97057,0 -9,-4.029434 -9,-9 V 9 c 0,-4.9705649 4.02943,-9 9,-9 z"
               style="fill:none;stroke:#000000;stroke-width:1;stroke-linecap:butt;stroke-linejoin:miter;stroke-miterlimit:10;stroke-dasharray:none;stroke-opacity:1"
               id="path118" /></g><g
             id="g120" /><g
             id="g122"
             transform="translate(173,24)"><g
               id="g124" /></g><g
             id="g126"><path
               inkscape:connector-curvature="0"
               d="m 175.67578,31.222656 c 0.0273,0.488281 0.14258,0.884766 0.3457,1.189453 0.38672,0.570313 1.06836,0.855469 2.04493,0.855469 0.4375,0 0.83593,-0.0625 1.19531,-0.1875 0.69531,-0.242187 1.04297,-0.675781 1.04297,-1.300781 0,-0.46875 -0.14649,-0.802735 -0.43946,-1.001953 -0.29687,-0.195313 -0.76172,-0.365235 -1.39453,-0.509766 l -1.16601,-0.263672 c -0.76172,-0.171875 -1.30078,-0.361328 -1.61719,-0.568359 -0.54688,-0.359375 -0.82031,-0.896485 -0.82031,-1.611328 0,-0.773438 0.26757,-1.408203 0.80273,-1.904297 0.53516,-0.496094 1.29297,-0.744141 2.27344,-0.744141 0.90234,0 1.66894,0.217774 2.2998,0.65332 0.63086,0.435547 0.94629,1.131836 0.94629,2.088868 h -1.0957 c -0.0586,-0.460938 -0.18359,-0.814453 -0.375,-1.060547 -0.35547,-0.449219 -0.95899,-0.673828 -1.81055,-0.673828 -0.6875,0 -1.18164,0.144531 -1.48242,0.433594 -0.30078,0.289062 -0.45117,0.624999 -0.45117,1.007812 0,0.421875 0.17578,0.730469 0.52734,0.925781 0.23047,0.125 0.75196,0.28125 1.56446,0.46875 l 1.20703,0.275391 c 0.58203,0.132812 1.03125,0.314453 1.34765,0.544922 0.54688,0.402343 0.82032,0.986328 0.82032,1.751953 0,0.953125 -0.34668,1.634766 -1.04004,2.044922 -0.69336,0.410156 -1.49903,0.615234 -2.417,0.615234 -1.07031,0 -1.9082,-0.273437 -2.51367,-0.820312 -0.60547,-0.542969 -0.90234,-1.279297 -0.89062,-2.208985 z m 11.02637,1.303711 c 0.25976,-0.529297 0.38965,-1.118164 0.38965,-1.766601 0,-0.585938 -0.0937,-1.0625 -0.28125,-1.429688 -0.29688,-0.578125 -0.8086,-0.867187 -1.53516,-0.867187 -0.64453,0 -1.11328,0.246093 -1.40625,0.738281 -0.29297,0.492187 -0.43945,1.085937 -0.43945,1.78125 0,0.667969 0.14648,1.224609 0.43945,1.669922 0.29297,0.445312 0.75781,0.667969 1.39453,0.667969 0.69922,0 1.17871,-0.264649 1.43848,-0.793946 z m 0.65332,-4.174805 c 0.55859,0.539063 0.83789,1.332032 0.83789,2.378907 0,1.011718 -0.2461,1.847656 -0.73828,2.507812 -0.49219,0.660156 -1.25586,0.990235 -2.29102,0.990235 -0.86328,0 -1.54883,-0.291993 -2.05664,-0.875977 C 182.59961,32.768555 182.3457,31.984375 182.3457,31 c 0,-1.054688 0.26758,-1.894531 0.80274,-2.519531 0.53515,-0.625 1.2539,-0.9375 2.15625,-0.9375 0.80859,0 1.49218,0.269531 2.05078,0.808593 z M 190.5,27.724609 v 4.166016 c 0,0.320312 0.0508,0.582031 0.15234,0.785156 0.1875,0.375 0.53711,0.5625 1.04883,0.5625 0.73438,0 1.23438,-0.328125 1.5,-0.984375 0.14453,-0.351562 0.2168,-0.833984 0.2168,-1.447265 v -3.082032 h 1.05469 V 34 h -0.9961 l 0.0117,-0.925781 c -0.13672,0.238281 -0.30664,0.439453 -0.50977,0.603515 -0.40234,0.328125 -0.89062,0.492188 -1.46484,0.492188 -0.89453,0 -1.50391,-0.298828 -1.82812,-0.896485 -0.17579,-0.320312 -0.26368,-0.748046 -0.26368,-1.283203 v -4.265625 h 1.07813 z m 5.64648,0 h 1.00196 v 1.083985 c 0.082,-0.210938 0.2832,-0.467774 0.60351,-0.770508 0.32031,-0.302735 0.68946,-0.454102 1.10742,-0.454102 0.0195,0 0.0527,0.002 0.0996,0.0059 0.0469,0.0039 0.12696,0.01172 0.24024,0.02344 v 1.113281 c -0.0625,-0.01172 -0.12012,-0.01953 -0.17285,-0.02344 -0.0527,-0.0039 -0.11036,-0.0059 -0.17286,-0.0059 -0.53124,0 -0.93945,0.170898 -1.2246,0.512695 -0.28516,0.341797 -0.42774,0.735351 -0.42774,1.180664 v 3.609375 h -1.05469 v -6.275391 z m 8.10059,0.333985 c 0.44336,0.34375 0.70996,0.935547 0.7998,1.77539 h -1.02539 c -0.0625,-0.386718 -0.20507,-0.708008 -0.42773,-0.963867 -0.22266,-0.255859 -0.58008,-0.383789 -1.07227,-0.383789 -0.67187,0 -1.15234,0.328125 -1.4414,0.984375 -0.1875,0.425781 -0.28125,0.951172 -0.28125,1.576172 0,0.628906 0.13281,1.158203 0.39843,1.587891 0.26563,0.429687 0.6836,0.644531 1.25391,0.644531 0.4375,0 0.78418,-0.133789 1.04004,-0.401367 0.25586,-0.267579 0.43262,-0.633789 0.53027,-1.098633 h 1.02539 c -0.11718,0.832031 -0.41015,1.440429 -0.8789,1.825195 -0.46875,0.384766 -1.06836,0.577149 -1.79883,0.577149 -0.82031,0 -1.47461,-0.299805 -1.96289,-0.899415 -0.48828,-0.599609 -0.73242,-1.348632 -0.73242,-2.24707 0,-1.101562 0.26758,-1.958984 0.80273,-2.572265 0.53516,-0.613282 1.2168,-0.919922 2.04492,-0.919922 0.70703,0 1.28223,0.171875 1.72559,0.515625 z m 5.76269,-0.161133 c 0.41797,0.208984 0.73633,0.479492 0.95508,0.811523 0.21094,0.316407 0.35157,0.685547 0.42188,1.107422 0.0625,0.289063 0.0937,0.75 0.0937,1.382813 h -4.59961 c 0.0195,0.636718 0.16992,1.147461 0.45117,1.532226 0.28125,0.384766 0.7168,0.577149 1.30664,0.577149 0.55078,0 0.99024,-0.181641 1.31836,-0.544922 0.1875,-0.210938 0.32031,-0.455078 0.39844,-0.732422 h 1.03711 c -0.0274,0.230469 -0.11817,0.487305 -0.27246,0.770508 -0.1543,0.283203 -0.32715,0.514648 -0.51856,0.694336 -0.32031,0.3125 -0.7168,0.523437 -1.18945,0.632812 -0.25391,0.0625 -0.54102,0.09375 -0.86133,0.09375 -0.78125,0 -1.44336,-0.28418 -1.98633,-0.852539 -0.54297,-0.568359 -0.81445,-1.364258 -0.81445,-2.387695 0,-1.007813 0.27344,-1.826172 0.82031,-2.455078 0.54688,-0.628907 1.26172,-0.94336 2.14453,-0.94336 0.44532,0 0.87696,0.104492 1.29492,0.313477 z m 0.38672,2.463867 c -0.043,-0.457031 -0.14257,-0.822266 -0.29882,-1.095703 -0.28907,-0.507813 -0.77149,-0.761719 -1.44727,-0.761719 -0.48438,0 -0.89063,0.174805 -1.21875,0.524414 -0.32813,0.34961 -0.50195,0.793946 -0.52148,1.333008 z m 5.95703,-4.96875 h 6.2754 v 1.054688 h -5.13868 v 2.613281 h 4.75196 v 0.996094 h -4.75196 v 2.917968 h 5.22657 V 34 h -6.36329 z m 7.74805,2.332031 h 1.00195 v 0.890625 c 0.29688,-0.367187 0.61133,-0.630859 0.94336,-0.791015 0.33204,-0.160157 0.70118,-0.240235 1.10743,-0.240235 0.89062,0 1.49218,0.310547 1.80468,0.931641 0.17188,0.339844 0.25782,0.826172 0.25782,1.458984 V 34 h -1.07227 v -3.955078 c 0,-0.382813 -0.0566,-0.691406 -0.16992,-0.925781 -0.1875,-0.390625 -0.52735,-0.585938 -1.01953,-0.585938 -0.25,0 -0.45508,0.02539 -0.61524,0.07617 -0.28906,0.08594 -0.54297,0.257812 -0.76172,0.515625 -0.17578,0.207031 -0.29004,0.420898 -0.34277,0.641601 -0.0527,0.220704 -0.0791,0.536133 -0.0791,0.94629 v 3.287109 h -1.05469 v -6.275391 z m 10.81738,0.333985 c 0.44336,0.34375 0.70997,0.935547 0.79981,1.77539 h -1.02539 c -0.0625,-0.386718 -0.20508,-0.708008 -0.42774,-0.963867 -0.22265,-0.255859 -0.58007,-0.383789 -1.07226,-0.383789 -0.67188,0 -1.15235,0.328125 -1.44141,0.984375 -0.1875,0.425781 -0.28125,0.951172 -0.28125,1.576172 0,0.628906 0.13281,1.158203 0.39844,1.587891 0.26562,0.429687 0.68359,0.644531 1.25391,0.644531 0.4375,0 0.78418,-0.133789 1.04003,-0.401367 0.25586,-0.267579 0.43262,-0.633789 0.53028,-1.098633 h 1.02539 c -0.11719,0.832031 -0.41016,1.440429 -0.87891,1.825195 -0.46875,0.384766 -1.06836,0.577149 -1.79883,0.577149 -0.82031,0 -1.4746,-0.299805 -1.96289,-0.899415 -0.48828,-0.599609 -0.73242,-1.348632 -0.73242,-2.24707 0,-1.101562 0.26758,-1.958984 0.80274,-2.572265 0.53515,-0.613282 1.21679,-0.919922 2.04492,-0.919922 0.70703,0 1.28222,0.171875 1.72558,0.515625 z m 5.78321,4.467773 c 0.25976,-0.529297 0.38965,-1.118164 0.38965,-1.766601 0,-0.585938 -0.0937,-1.0625 -0.28125,-1.429688 -0.29688,-0.578125 -0.8086,-0.867187 -1.53516,-0.867187 -0.64453,0 -1.11328,0.246093 -1.40625,0.738281 -0.29297,0.492187 -0.43945,1.085937 -0.43945,1.78125 0,0.667969 0.14648,1.224609 0.43945,1.669922 0.29297,0.445312 0.75781,0.667969 1.39453,0.667969 0.69922,0 1.17871,-0.264649 1.43848,-0.793946 z m 0.65332,-4.174805 c 0.55859,0.539063 0.83789,1.332032 0.83789,2.378907 0,1.011718 -0.2461,1.847656 -0.73828,2.507812 -0.49219,0.660156 -1.25586,0.990235 -2.29102,0.990235 -0.86328,0 -1.54883,-0.291993 -2.05664,-0.875977 C 236.59961,32.768555 236.3457,31.984375 236.3457,31 c 0,-1.054688 0.26758,-1.894531 0.80274,-2.519531 0.53515,-0.625 1.2539,-0.9375 2.15625,-0.9375 0.80859,0 1.49218,0.269531 2.05078,0.808593 z m 3.18554,4.271485 c 0.28516,0.453125 0.74219,0.679687 1.3711,0.679687 0.48828,0 0.88965,-0.209961 1.2041,-0.629883 0.31445,-0.419921 0.47168,-1.02246 0.47168,-1.807617 0,-0.792968 -0.16211,-1.379883 -0.48633,-1.760742 -0.32422,-0.380859 -0.72461,-0.571289 -1.20117,-0.571289 -0.53125,0 -0.96191,0.203125 -1.29199,0.609375 -0.33008,0.40625 -0.49512,1.003906 -0.49512,1.792969 0,0.671875 0.14258,1.234375 0.42773,1.6875 z m 2.36719,-4.705078 c 0.1875,0.117187 0.40039,0.322265 0.63867,0.615234 v -3.169922 h 1.01368 V 34 h -0.94922 v -0.873047 c -0.2461,0.386719 -0.53711,0.666016 -0.87305,0.837891 -0.33594,0.171875 -0.7207,0.257812 -1.1543,0.257812 -0.69922,0 -1.30468,-0.293945 -1.8164,-0.881836 C 243.25586,32.75293 243,31.970703 243,30.994141 c 0,-0.914063 0.2334,-1.706055 0.70019,-2.375977 0.4668,-0.669922 1.13379,-1.004883 2.00098,-1.004883 0.48047,0 0.88281,0.101563 1.20703,0.304688 z m 3.20899,-0.164063 h 1.07226 V 34 h -1.07226 z m 0,-2.361328 h 1.07226 v 1.195313 h -1.07226 z m 2.65625,2.332031 h 1.00195 v 0.890625 c 0.29687,-0.367187 0.61133,-0.630859 0.94336,-0.791015 0.33203,-0.160157 0.70117,-0.240235 1.10742,-0.240235 0.89063,0 1.49219,0.310547 1.80469,0.931641 0.17187,0.339844 0.25781,0.826172 0.25781,1.458984 V 34 h -1.07226 v -3.955078 c 0,-0.382813 -0.0566,-0.691406 -0.16993,-0.925781 -0.1875,-0.390625 -0.52734,-0.585938 -1.01953,-0.585938 -0.25,0 -0.45508,0.02539 -0.61523,0.07617 -0.28906,0.08594 -0.54297,0.257812 -0.76172,0.515625 -0.17578,0.207031 -0.29004,0.420898 -0.34277,0.641601 -0.0527,0.220704 -0.0791,0.536133 -0.0791,0.94629 v 3.287109 h -1.05469 v -6.275391 z m 10.17578,0.251953 c 0.19922,0.136719 0.40234,0.335938 0.60937,0.597657 v -0.791016 h 0.97266 v 5.707031 c 0,0.796875 -0.11719,1.425782 -0.35156,1.886719 -0.4375,0.851563 -1.26368,1.277344 -2.47852,1.277344 -0.67578,0 -1.24414,-0.151367 -1.70508,-0.454102 -0.46093,-0.302734 -0.71875,-0.776367 -0.77343,-1.420898 h 1.07226 c 0.0508,0.28125 0.15235,0.498047 0.30469,0.65039 0.23828,0.234375 0.61328,0.351563 1.125,0.351563 0.80859,0 1.33789,-0.285156 1.58789,-0.855469 0.14844,-0.335937 0.2168,-0.935547 0.20508,-1.798828 -0.21094,0.320313 -0.46485,0.558594 -0.76172,0.714844 -0.29688,0.15625 -0.68945,0.234375 -1.17774,0.234375 -0.67968,0 -1.27441,-0.241211 -1.78418,-0.723633 -0.50976,-0.482422 -0.76464,-1.280273 -0.76464,-2.393555 0,-1.050781 0.25683,-1.871093 0.7705,-2.460937 0.51368,-0.589844 1.13379,-0.884766 1.86036,-0.884766 0.49218,0 0.92187,0.121094 1.28906,0.363281 z m 0.1289,1.13086 c -0.32031,-0.375 -0.72851,-0.5625 -1.22461,-0.5625 -0.74218,0 -1.25,0.347656 -1.52343,1.042969 -0.14453,0.371093 -0.2168,0.857421 -0.2168,1.458984 0,0.707031 0.14355,1.245117 0.43066,1.614258 0.28711,0.36914 0.67286,0.553711 1.15723,0.553711 0.75781,0 1.29102,-0.341797 1.59961,-1.025391 0.17188,-0.386719 0.25781,-0.837891 0.25781,-1.353516 0,-0.777343 -0.16015,-1.353515 -0.48047,-1.728515 z"
               style="fill:#000000;fill-opacity:1;fill-rule:nonzero;stroke:none"
               id="path128" /></g><g
             id="g130"
             transform="translate(173,24)"><g
               id="g132" /></g><g
             id="g134" /><g
             id="g136"
             transform="translate(0.5,0.5)"><path
               inkscape:connector-curvature="0"
               d="m 380,60 v 43.63"
               style="fill:none;stroke:#000000;stroke-width:1;stroke-linecap:butt;stroke-linejoin:miter;stroke-miterlimit:10;stroke-dasharray:none;stroke-opacity:1"
               id="path138" /></g><g
             id="g140"><path
               inkscape:connector-curvature="0"
               d="m 380.5,109.38 -3.5,-7 3.5,1.75 3.5,-1.75 z"
               style="fill:#000000;fill-opacity:1;fill-rule:nonzero;stroke:none"
               id="path142" /></g><g
             id="g144"
             transform="translate(0.5,0.5)"><path
               inkscape:connector-curvature="0"
               d="m 380,108.88 -3.5,-7 3.5,1.75 3.5,-1.75 z"
               style="fill:none;stroke:#000000;stroke-width:1;stroke-linecap:butt;stroke-linejoin:miter;stroke-miterlimit:10;stroke-dasharray:none;stroke-opacity:1"
               id="path146" /></g><g
             id="g148" /><g
             id="g150"
             transform="translate(0.5,0.5)" /><g
             id="g152"><path
               inkscape:connector-curvature="0"
               d="m 329.5,0.5 h 102 c 4.97055,0 9,4.0294351 9,9 v 42 c 0,4.970566 -4.02945,9 -9,9 h -102 c -4.97055,0 -9,-4.029434 -9,-9 v -42 c 0,-4.9705649 4.02945,-9 9,-9 z"
               style="fill:#ffffff;fill-opacity:1;fill-rule:nonzero;stroke:none"
               id="path154" /></g><g
             id="g156"
             transform="translate(0.5,0.5)"><path
               inkscape:connector-curvature="0"
               d="m 329,0 h 102 c 4.97055,0 9,4.0294351 9,9 v 42 c 0,4.970566 -4.02945,9 -9,9 H 329 c -4.97055,0 -9,-4.029434 -9,-9 V 9 c 0,-4.9705649 4.02945,-9 9,-9 z"
               style="fill:none;stroke:#000000;stroke-width:1;stroke-linecap:butt;stroke-linejoin:miter;stroke-miterlimit:10;stroke-dasharray:none;stroke-opacity:1"
               id="path158" /></g><g
             id="g160" /><g
             id="g162"
             transform="translate(330,24)"><g
               id="g164" /></g><g
             id="g166"><path
               inkscape:connector-curvature="0"
               d="m 338.07812,26.019531 c 0.60157,0.574219 0.93555,1.226563 1.00196,1.957031 h -1.13672 c -0.12891,-0.554687 -0.38574,-0.99414 -0.77051,-1.318359 -0.38477,-0.324219 -0.9248,-0.486328 -1.62012,-0.486328 -0.84765,0 -1.53222,0.297851 -2.05371,0.893555 -0.52148,0.595703 -0.78222,1.508789 -0.78222,2.739257 0,1.007813 0.23535,1.825196 0.70605,2.452149 0.4707,0.626953 1.17285,0.94043 2.10645,0.94043 0.85937,0 1.51367,-0.330079 1.96289,-0.990235 0.23828,-0.347656 0.41601,-0.804687 0.5332,-1.371094 h 1.13672 c -0.10156,0.90625 -0.4375,1.666016 -1.00781,2.279297 -0.6836,0.738282 -1.60547,1.107422 -2.76563,1.107422 -1,0 -1.83984,-0.302734 -2.51953,-0.908203 -0.89453,-0.800781 -1.3418,-2.037109 -1.3418,-3.708984 0,-1.269532 0.33594,-2.310547 1.00782,-3.123047 0.72656,-0.882813 1.72851,-1.324219 3.00585,-1.324219 1.08985,0 1.93555,0.287109 2.53711,0.861328 z m 2.35157,-0.65625 h 1.05468 v 3.210938 c 0.25,-0.316407 0.47461,-0.539063 0.67383,-0.667969 0.33985,-0.222656 0.76367,-0.333984 1.27149,-0.333984 0.91015,0 1.52734,0.318359 1.85156,0.955078 0.17578,0.347656 0.26367,0.830078 0.26367,1.447265 V 34 h -1.08398 v -3.955078 c 0,-0.460938 -0.0586,-0.798828 -0.17578,-1.013672 -0.19141,-0.34375 -0.55079,-0.515625 -1.07813,-0.515625 -0.4375,0 -0.83398,0.150391 -1.18945,0.451172 -0.35547,0.300781 -0.53321,0.86914 -0.53321,1.705078 V 34 h -1.05468 z m 7.81445,7.6875 c 0.22266,0.175782 0.48633,0.263672 0.79102,0.263672 0.37109,0 0.73046,-0.08594 1.07812,-0.257812 0.58594,-0.285157 0.87891,-0.751954 0.87891,-1.400391 v -0.849609 c -0.12891,0.08203 -0.29492,0.15039 -0.49805,0.205078 -0.20313,0.05469 -0.40234,0.09375 -0.59766,0.117187 l -0.63867,0.08203 c -0.38281,0.05078 -0.66992,0.13086 -0.86133,0.240235 -0.32421,0.183594 -0.48632,0.476562 -0.48632,0.878906 0,0.304688 0.11132,0.544922 0.33398,0.720703 z m 2.2207,-2.853515 c 0.24219,-0.03125 0.4043,-0.132813 0.48633,-0.304688 0.0469,-0.09375 0.0703,-0.228516 0.0703,-0.404297 0,-0.359375 -0.12793,-0.620117 -0.38379,-0.782226 -0.25586,-0.16211 -0.62207,-0.243164 -1.09863,-0.243164 -0.55078,0 -0.9414,0.148437 -1.17187,0.445312 -0.12891,0.164063 -0.21289,0.408203 -0.25196,0.732422 h -0.98437 c 0.0195,-0.773438 0.27051,-1.311524 0.75293,-1.614258 0.48242,-0.302734 1.04199,-0.454101 1.67871,-0.454101 0.73828,0 1.33789,0.140625 1.79883,0.421875 0.45703,0.28125 0.68554,0.71875 0.68554,1.3125 v 3.615234 c 0,0.109375 0.0225,0.197266 0.0674,0.263672 0.0449,0.06641 0.13965,0.09961 0.28418,0.09961 0.0469,0 0.0996,-0.0029 0.1582,-0.0088 0.0586,-0.0059 0.12109,-0.01465 0.1875,-0.02637 v 0.779297 c -0.16406,0.04687 -0.28906,0.07617 -0.375,0.08789 -0.0859,0.01172 -0.20313,0.01758 -0.35156,0.01758 -0.36328,0 -0.62696,-0.128907 -0.79102,-0.386719 -0.0859,-0.136719 -0.14648,-0.330078 -0.18164,-0.580078 -0.21484,0.28125 -0.52344,0.52539 -0.92578,0.732422 -0.40234,0.207031 -0.8457,0.310546 -1.33008,0.310546 -0.58203,0 -1.05762,-0.176757 -1.42676,-0.530273 -0.36914,-0.353516 -0.55371,-0.795898 -0.55371,-1.327148 0,-0.582032 0.18164,-1.033204 0.54492,-1.353516 0.36329,-0.320313 0.83985,-0.517578 1.42969,-0.591797 l 1.68164,-0.210937 z m 3.3086,-2.472657 h 1.00195 v 0.890625 c 0.29688,-0.367187 0.61133,-0.630859 0.94336,-0.791015 0.33203,-0.160157 0.70117,-0.240235 1.10742,-0.240235 0.89063,0 1.49219,0.310547 1.80469,0.931641 0.17187,0.339844 0.25781,0.826172 0.25781,1.458984 V 34 h -1.07226 v -3.955078 c 0,-0.382813 -0.0566,-0.691406 -0.16993,-0.925781 -0.1875,-0.390625 -0.52734,-0.585938 -1.01953,-0.585938 -0.25,0 -0.45508,0.02539 -0.61523,0.07617 -0.28906,0.08594 -0.54297,0.257812 -0.76172,0.515625 -0.17578,0.207031 -0.29004,0.420898 -0.34277,0.641601 -0.0527,0.220704 -0.0791,0.536133 -0.0791,0.94629 v 3.287109 h -1.05468 v -6.275391 z m 6.67187,0 h 1.00196 v 0.890625 c 0.29687,-0.367187 0.61132,-0.630859 0.94335,-0.791015 0.33204,-0.160157 0.70118,-0.240235 1.10743,-0.240235 0.89062,0 1.49218,0.310547 1.80468,0.931641 0.17188,0.339844 0.25782,0.826172 0.25782,1.458984 V 34 h -1.07227 v -3.955078 c 0,-0.382813 -0.0566,-0.691406 -0.16992,-0.925781 -0.1875,-0.390625 -0.52735,-0.585938 -1.01953,-0.585938 -0.25,0 -0.45508,0.02539 -0.61524,0.07617 -0.28906,0.08594 -0.54296,0.257812 -0.76172,0.515625 -0.17578,0.207031 -0.29004,0.420898 -0.34277,0.641601 -0.0527,0.220704 -0.0791,0.536133 -0.0791,0.94629 v 3.287109 h -1.05469 v -6.275391 z m 10.58008,0.172852 c 0.41797,0.208984 0.73633,0.479492 0.95508,0.811523 0.21094,0.316407 0.35156,0.685547 0.42187,1.107422 0.0625,0.289063 0.0937,0.75 0.0937,1.382813 h -4.59961 c 0.0195,0.636718 0.16993,1.147461 0.45118,1.532226 0.28125,0.384766 0.71679,0.577149 1.30664,0.577149 0.55078,0 0.99023,-0.181641 1.31836,-0.544922 0.1875,-0.210938 0.32031,-0.455078 0.39843,-0.732422 h 1.03711 c -0.0273,0.230469 -0.11816,0.487305 -0.27246,0.770508 -0.1543,0.283203 -0.32715,0.514648 -0.51855,0.694336 -0.32032,0.3125 -0.7168,0.523437 -1.18946,0.632812 -0.2539,0.0625 -0.54101,0.09375 -0.86132,0.09375 -0.78125,0 -1.44336,-0.28418 -1.98633,-0.852539 -0.54297,-0.568359 -0.81446,-1.364258 -0.81446,-2.387695 0,-1.007813 0.27344,-1.826172 0.82032,-2.455078 0.54687,-0.628907 1.26172,-0.94336 2.14453,-0.94336 0.44531,0 0.87695,0.104492 1.29492,0.313477 z m 0.38672,2.463867 c -0.043,-0.457031 -0.14258,-0.822266 -0.29883,-1.095703 -0.28906,-0.507813 -0.77148,-0.761719 -1.44727,-0.761719 -0.48437,0 -0.89062,0.174805 -1.21874,0.524414 -0.32813,0.34961 -0.50196,0.793946 -0.52149,1.333008 z m 2.40625,-4.96875 h 1.05469 V 34 h -1.05469 z m 6.20703,0 h 6.27539 v 1.054688 h -5.13867 v 2.613281 h 4.75195 v 0.996094 h -4.75195 v 2.917968 h 5.22656 V 34 h -6.36328 z m 7.74805,2.332031 h 1.00195 v 0.890625 c 0.29688,-0.367187 0.61133,-0.630859 0.94336,-0.791015 0.33203,-0.160157 0.70117,-0.240235 1.10742,-0.240235 0.89063,0 1.49219,0.310547 1.80469,0.931641 0.17187,0.339844 0.25781,0.826172 0.25781,1.458984 V 34 h -1.07226 v -3.955078 c 0,-0.382813 -0.0566,-0.691406 -0.16993,-0.925781 -0.1875,-0.390625 -0.52734,-0.585938 -1.01953,-0.585938 -0.25,0 -0.45508,0.02539 -0.61523,0.07617 -0.28906,0.08594 -0.54297,0.257812 -0.76172,0.515625 -0.17578,0.207031 -0.29004,0.420898 -0.34277,0.641601 -0.0527,0.220704 -0.0791,0.536133 -0.0791,0.94629 v 3.287109 h -1.05468 v -6.275391 z m 10.81738,0.333985 c 0.44336,0.34375 0.70996,0.935547 0.7998,1.77539 h -1.02539 c -0.0625,-0.386718 -0.20507,-0.708008 -0.42773,-0.963867 -0.22266,-0.255859 -0.58008,-0.383789 -1.07227,-0.383789 -0.67187,0 -1.15234,0.328125 -1.4414,0.984375 -0.1875,0.425781 -0.28125,0.951172 -0.28125,1.576172 0,0.628906 0.13281,1.158203 0.39843,1.587891 0.26563,0.429687 0.6836,0.644531 1.25391,0.644531 0.4375,0 0.78418,-0.133789 1.04004,-0.401367 0.25586,-0.267579 0.43262,-0.633789 0.53027,-1.098633 h 1.02539 c -0.11718,0.832031 -0.41015,1.440429 -0.8789,1.825195 -0.46875,0.384766 -1.06836,0.577149 -1.79883,0.577149 -0.82031,0 -1.47461,-0.299805 -1.96289,-0.899415 -0.48828,-0.599609 -0.73242,-1.348632 -0.73242,-2.24707 0,-1.101562 0.26758,-1.958984 0.80273,-2.572265 0.53516,-0.613282 1.2168,-0.919922 2.04492,-0.919922 0.70704,0 1.28223,0.171875 1.72559,0.515625 z m 5.7832,4.467773 c 0.25977,-0.529297 0.38965,-1.118164 0.38965,-1.766601 0,-0.585938 -0.0937,-1.0625 -0.28125,-1.429688 -0.29687,-0.578125 -0.80859,-0.867187 -1.53515,-0.867187 -0.64454,0 -1.11329,0.246093 -1.40626,0.738281 -0.29296,0.492187 -0.43945,1.085937 -0.43945,1.78125 0,0.667969 0.14649,1.224609 0.43945,1.669922 0.29297,0.445312 0.75782,0.667969 1.39454,0.667969 0.69922,0 1.17871,-0.264649 1.43847,-0.793946 z m 0.65332,-4.174805 c 0.5586,0.539063 0.83789,1.332032 0.83789,2.378907 0,1.011718 -0.24609,1.847656 -0.73828,2.507812 -0.49218,0.660156 -1.25586,0.990235 -2.29101,0.990235 -0.86328,0 -1.54883,-0.291993 -2.05664,-0.875977 -0.50782,-0.583984 -0.76172,-1.368164 -0.76172,-2.352539 0,-1.054688 0.26758,-1.894531 0.80273,-2.519531 0.53516,-0.625 1.25391,-0.9375 2.15625,-0.9375 0.8086,0 1.49219,0.269531 2.05078,0.808593 z m 3.18555,4.271485 c 0.28516,0.453125 0.74219,0.679687 1.37109,0.679687 0.48829,0 0.88965,-0.209961 1.2041,-0.629883 0.31446,-0.419921 0.47169,-1.02246 0.47169,-1.807617 0,-0.792968 -0.16211,-1.379883 -0.48633,-1.760742 -0.32422,-0.380859 -0.72461,-0.571289 -1.20117,-0.571289 -0.53126,0 -0.96192,0.203125 -1.292,0.609375 -0.33008,0.40625 -0.49511,1.003906 -0.49511,1.792969 0,0.671875 0.14257,1.234375 0.42773,1.6875 z m 2.36719,-4.705078 c 0.1875,0.117187 0.40039,0.322265 0.63867,0.615234 v -3.169922 h 1.01367 V 34 h -0.94922 v -0.873047 c -0.24609,0.386719 -0.53711,0.666016 -0.87304,0.837891 -0.33594,0.171875 -0.72071,0.257812 -1.1543,0.257812 -0.69922,0 -1.30469,-0.293945 -1.81641,-0.881836 -0.51172,-0.58789 -0.76758,-1.370117 -0.76758,-2.346679 0,-0.914063 0.2334,-1.706055 0.7002,-2.375977 0.4668,-0.669922 1.13379,-1.004883 2.00098,-1.004883 0.48046,0 0.88281,0.101563 1.20703,0.304688 z m 3.20898,-0.164063 h 1.07227 V 34 h -1.07227 z m 0,-2.361328 h 1.07227 v 1.195313 h -1.07227 z m 2.65625,2.332031 h 1.00196 v 0.890625 c 0.29687,-0.367187 0.61132,-0.630859 0.94335,-0.791015 0.33204,-0.160157 0.70118,-0.240235 1.10743,-0.240235 0.89062,0 1.49218,0.310547 1.80468,0.931641 0.17188,0.339844 0.25782,0.826172 0.25782,1.458984 V 34 h -1.07227 v -3.955078 c 0,-0.382813 -0.0566,-0.691406 -0.16992,-0.925781 -0.1875,-0.390625 -0.52735,-0.585938 -1.01953,-0.585938 -0.25,0 -0.45508,0.02539 -0.61524,0.07617 -0.28906,0.08594 -0.54296,0.257812 -0.76172,0.515625 -0.17578,0.207031 -0.29004,0.420898 -0.34277,0.641601 -0.0527,0.220704 -0.0791,0.536133 -0.0791,0.94629 v 3.287109 h -1.05469 v -6.275391 z m 10.17578,0.251953 c 0.19922,0.136719 0.40235,0.335938 0.60938,0.597657 v -0.791016 h 0.97265 v 5.707031 c 0,0.796875 -0.11718,1.425782 -0.35156,1.886719 -0.4375,0.851563 -1.26367,1.277344 -2.47851,1.277344 -0.67578,0 -1.24414,-0.151367 -1.70508,-0.454102 -0.46094,-0.302734 -0.71875,-0.776367 -0.77344,-1.420898 h 1.07227 c 0.0508,0.28125 0.15234,0.498047 0.30468,0.65039 0.23829,0.234375 0.61329,0.351563 1.125,0.351563 0.8086,0 1.33789,-0.285156 1.58789,-0.855469 0.14844,-0.335937 0.2168,-0.935547 0.20508,-1.798828 -0.21094,0.320313 -0.46484,0.558594 -0.76172,0.714844 -0.29687,0.15625 -0.68945,0.234375 -1.17773,0.234375 -0.67969,0 -1.27442,-0.241211 -1.78418,-0.723633 -0.50977,-0.482422 -0.76465,-1.280273 -0.76465,-2.393555 0,-1.050781 0.25684,-1.871093 0.77051,-2.460937 0.51367,-0.589844 1.13379,-0.884766 1.86035,-0.884766 0.49219,0 0.92188,0.121094 1.28906,0.363281 z m 0.12891,1.13086 c -0.32031,-0.375 -0.72852,-0.5625 -1.22461,-0.5625 -0.74219,0 -1.25,0.347656 -1.52344,1.042969 -0.14453,0.371093 -0.21679,0.857421 -0.21679,1.458984 0,0.707031 0.14355,1.245117 0.43066,1.614258 0.28711,0.36914 0.67285,0.553711 1.15723,0.553711 0.75781,0 1.29101,-0.341797 1.59961,-1.025391 0.17187,-0.386719 0.25781,-0.837891 0.25781,-1.353516 0,-0.777343 -0.16016,-1.353515 -0.48047,-1.728515 z"
               style="fill:#000000;fill-opacity:1;fill-rule:nonzero;stroke:none"
               id="path168" /></g><g
             id="g170"
             transform="translate(330,24)"><g
               id="g172" /></g><g
             id="g174" /><g
             id="g176"
             transform="translate(0.5,0.5)" /><g
             id="g178"><path
               inkscape:connector-curvature="0"
               d="m 9.5,220.5 h 102 c 4.97057,0 9,4.02943 9,9 v 42 c 0,4.97055 -4.02943,9 -9,9 H 9.5 c -4.9705649,0 -9,-4.02945 -9,-9 v -42 c 0,-4.97057 4.0294351,-9 9,-9 z"
               style="fill:#ffffff;fill-opacity:1;fill-rule:nonzero;stroke:none"
               id="path180" /></g><g
             id="g182"
             transform="translate(0.5,0.5)"><path
               inkscape:connector-curvature="0"
               d="m 9,220 h 102 c 4.97057,0 9,4.02943 9,9 v 42 c 0,4.97055 -4.02943,9 -9,9 H 9 c -4.9705649,0 -9,-4.02945 -9,-9 v -42 c 0,-4.97057 4.0294351,-9 9,-9 z"
               style="fill:none;stroke:#000000;stroke-width:1;stroke-linecap:butt;stroke-linejoin:miter;stroke-miterlimit:10;stroke-dasharray:none;stroke-opacity:1"
               id="path184" /></g><g
             id="g186" /><g
             id="g188"
             transform="translate(16,244)"><g
               id="g190" /></g><g
             id="g192"><path
               inkscape:connector-curvature="0"
               d="m 18.177734,245.39258 h 1.177735 V 254 h -1.177735 z m 2.923828,2.33203 h 1.001954 v 0.89062 c 0.296875,-0.36718 0.611328,-0.63086 0.943359,-0.79101 0.332031,-0.16016 0.701172,-0.24024 1.107422,-0.24024 0.890625,0 1.492187,0.31055 1.804687,0.93164 0.171875,0.33985 0.257813,0.82618 0.257813,1.45899 V 254 h -1.072266 v -3.95508 c 0,-0.38281 -0.05664,-0.69141 -0.169922,-0.92578 -0.1875,-0.39063 -0.527343,-0.58594 -1.019531,-0.58594 -0.25,0 -0.455078,0.0254 -0.615234,0.0762 -0.289063,0.0859 -0.542969,0.25782 -0.761719,0.51563 -0.175781,0.20703 -0.290039,0.4209 -0.342774,0.6416 -0.05273,0.2207 -0.0791,0.53613 -0.0791,0.94629 v 3.28711 h -1.054688 v -6.27539 z m 7.164063,-1.91602 c 0.246094,-0.35937 0.720703,-0.53906 1.423828,-0.53906 0.06641,0 0.134766,0.002 0.205078,0.006 0.07031,0.004 0.150391,0.01 0.240235,0.0176 v 0.96094 c -0.109375,-0.008 -0.188477,-0.0127 -0.237305,-0.0146 -0.04883,-0.002 -0.09473,-0.003 -0.137695,-0.003 -0.320313,0 -0.511719,0.083 -0.574219,0.24902 -0.0625,0.16602 -0.09375,0.58887 -0.09375,1.26856 h 1.042969 v 0.83203 h -1.054688 v 5.41406 h -1.042969 v -5.41406 h -0.873047 v -0.83203 h 0.873047 v -0.98438 c 0.01563,-0.4375 0.0918,-0.75781 0.228516,-0.96094 z m 6.764648,6.71778 c 0.259766,-0.5293 0.389649,-1.11817 0.389649,-1.76661 0,-0.58593 -0.09375,-1.0625 -0.28125,-1.42968 -0.296875,-0.57813 -0.808594,-0.86719 -1.535156,-0.86719 -0.644532,0 -1.113282,0.24609 -1.40625,0.73828 -0.292969,0.49219 -0.439454,1.08594 -0.439454,1.78125 0,0.66797 0.146485,1.22461 0.439454,1.66992 0.292968,0.44532 0.757812,0.66797 1.394531,0.66797 0.699219,0 1.178711,-0.26465 1.438476,-0.79394 z m 0.653321,-4.17481 c 0.558593,0.53906 0.83789,1.33203 0.83789,2.37891 0,1.01172 -0.246093,1.84765 -0.738281,2.50781 -0.492187,0.66016 -1.255859,0.99023 -2.291016,0.99023 -0.863281,0 -1.548828,-0.29199 -2.05664,-0.87597 -0.507813,-0.58399 -0.761719,-1.36817 -0.761719,-2.35254 0,-1.05469 0.267578,-1.89453 0.802734,-2.51953 0.535157,-0.625 1.253907,-0.9375 2.156251,-0.9375 0.808593,0 1.492187,0.26953 2.050781,0.80859 z m 2.11914,-0.62695 h 1.001953 v 1.08398 c 0.08203,-0.21093 0.283204,-0.46777 0.603516,-0.77051 0.320313,-0.30273 0.689453,-0.4541 1.107422,-0.4541 0.01953,0 0.05273,0.002 0.09961,0.006 0.04687,0.004 0.126953,0.0117 0.240235,0.0234 v 1.11328 c -0.0625,-0.0117 -0.120117,-0.0195 -0.172852,-0.0234 -0.05273,-0.004 -0.110351,-0.006 -0.172851,-0.006 -0.53125,0 -0.939453,0.1709 -1.22461,0.5127 -0.285156,0.3418 -0.427734,0.73535 -0.427734,1.18066 V 254 h -1.054688 z m 3.955078,0 h 1.042969 v 0.89062 c 0.25,-0.30859 0.476563,-0.5332 0.679688,-0.67382 0.347656,-0.23829 0.742187,-0.35743 1.183593,-0.35743 0.5,0 0.902344,0.12305 1.207032,0.36914 0.171875,0.14063 0.328125,0.34766 0.46875,0.6211 0.234375,-0.33594 0.509765,-0.58496 0.826172,-0.74707 0.316406,-0.16211 0.671875,-0.24317 1.066406,-0.24317 0.84375,0 1.417969,0.30469 1.722656,0.91407 0.164063,0.32812 0.246094,0.76953 0.246094,1.32422 V 254 h -1.095703 v -4.35938 c 0,-0.41796 -0.104493,-0.70507 -0.313477,-0.86132 -0.208984,-0.15625 -0.463867,-0.23438 -0.764648,-0.23438 -0.414063,0 -0.770508,0.13867 -1.069336,0.41602 -0.298828,0.27734 -0.448242,0.74023 -0.448242,1.38867 V 254 H 45.4375 v -4.0957 c 0,-0.42579 -0.05078,-0.73633 -0.152344,-0.93164 -0.160156,-0.29297 -0.458984,-0.43946 -0.896484,-0.43946 -0.398438,0 -0.760742,0.1543 -1.086914,0.46289 -0.326172,0.3086 -0.489258,0.86719 -0.489258,1.67578 V 254 h -1.054688 z m 11.126954,5.32617 c 0.222656,0.17578 0.486328,0.26367 0.791015,0.26367 0.371094,0 0.730469,-0.0859 1.078125,-0.25781 0.585938,-0.28516 0.878907,-0.75195 0.878907,-1.40039 v -0.84961 c -0.128907,0.082 -0.294922,0.15039 -0.498047,0.20508 -0.203125,0.0547 -0.402344,0.0937 -0.597657,0.11719 l -0.638672,0.082 c -0.382812,0.0508 -0.669921,0.13086 -0.861328,0.24023 -0.324218,0.18359 -0.486328,0.47656 -0.486328,0.87891 0,0.30468 0.111328,0.54492 0.333985,0.7207 z m 2.220703,-2.85352 c 0.242187,-0.0312 0.404297,-0.13281 0.486328,-0.30468 0.04687,-0.0937 0.07031,-0.22852 0.07031,-0.4043 0,-0.35937 -0.127929,-0.62012 -0.383789,-0.78223 -0.255859,-0.16211 -0.62207,-0.24316 -1.098633,-0.24316 -0.550781,0 -0.941406,0.14844 -1.171875,0.44531 -0.128906,0.16406 -0.21289,0.40821 -0.251953,0.73242 h -0.984375 c 0.01953,-0.77343 0.270508,-1.31152 0.75293,-1.61425 0.482422,-0.30274 1.041992,-0.45411 1.678711,-0.45411 0.738281,0 1.337891,0.14063 1.798828,0.42188 0.457031,0.28125 0.685547,0.71875 0.685547,1.3125 v 3.61523 c 0,0.10938 0.02246,0.19727 0.06738,0.26368 0.04492,0.0664 0.139648,0.0996 0.284179,0.0996 0.04687,0 0.09961,-0.003 0.158204,-0.009 0.05859,-0.006 0.121093,-0.0146 0.1875,-0.0264 v 0.7793 c -0.164063,0.0469 -0.289063,0.0762 -0.375,0.0879 -0.08594,0.0117 -0.203125,0.0176 -0.351563,0.0176 -0.363281,0 -0.626953,-0.1289 -0.791016,-0.38671 -0.08594,-0.13672 -0.146484,-0.33008 -0.18164,-0.58008 -0.214844,0.28125 -0.523438,0.52539 -0.925781,0.73242 -0.402344,0.20703 -0.845704,0.31055 -1.330079,0.31055 -0.582031,0 -1.057617,-0.17676 -1.426757,-0.53028 -0.369141,-0.35351 -0.553711,-0.7959 -0.553711,-1.32715 0,-0.58203 0.18164,-1.0332 0.544922,-1.35351 0.363281,-0.32031 0.839843,-0.51758 1.429687,-0.5918 l 1.681641,-0.21094 z m 3.519531,-4.2246 h 1.066406 v 1.75195 h 1.001953 v 0.86133 h -1.001953 v 4.0957 c 0,0.21875 0.07422,0.36523 0.222656,0.43945 0.08203,0.043 0.218751,0.0645 0.410157,0.0645 0.05078,0 0.105468,-9.8e-4 0.164062,-0.003 0.05859,-0.002 0.126953,-0.007 0.205078,-0.0146 v 0.83203 c -0.121093,0.0352 -0.24707,0.0606 -0.377929,0.0762 -0.13086,0.0156 -0.272461,0.0234 -0.424805,0.0234 -0.492188,0 -0.826172,-0.12598 -1.001953,-0.37793 -0.175781,-0.25195 -0.263672,-0.5791 -0.263672,-0.98145 v -4.15429 h -0.849609 v -0.86133 H 58.625 v -1.75195 z m 3.117187,1.78125 h 1.072266 V 254 h -1.072266 z m 0,-2.36133 h 1.072266 v 1.19531 h -1.072266 z m 6.584961,7.13379 c 0.259766,-0.5293 0.389649,-1.11817 0.389649,-1.76661 0,-0.58593 -0.09375,-1.0625 -0.28125,-1.42968 -0.296875,-0.57813 -0.808594,-0.86719 -1.535156,-0.86719 -0.644532,0 -1.113282,0.24609 -1.40625,0.73828 -0.292969,0.49219 -0.439454,1.08594 -0.439454,1.78125 0,0.66797 0.146485,1.22461 0.439454,1.66992 0.292968,0.44532 0.757812,0.66797 1.394531,0.66797 0.699219,0 1.178711,-0.26465 1.438476,-0.79394 z m 0.653321,-4.17481 c 0.558593,0.53906 0.83789,1.33203 0.83789,2.37891 0,1.01172 -0.246093,1.84765 -0.738281,2.50781 -0.492187,0.66016 -1.255859,0.99023 -2.291016,0.99023 -0.863281,0 -1.548828,-0.29199 -2.05664,-0.87597 -0.507813,-0.58399 -0.761719,-1.36817 -0.761719,-2.35254 0,-1.05469 0.267578,-1.89453 0.802734,-2.51953 0.535157,-0.625 1.253907,-0.9375 2.15625,-0.9375 0.808594,0 1.492188,0.26953 2.050782,0.80859 z m 2.089843,-0.62695 h 1.001954 v 0.89062 c 0.296875,-0.36718 0.611328,-0.63086 0.943359,-0.79101 0.332031,-0.16016 0.701172,-0.24024 1.107422,-0.24024 0.890625,0 1.492187,0.31055 1.804687,0.93164 0.171875,0.33985 0.257813,0.82618 0.257813,1.45899 V 254 h -1.072266 v -3.95508 c 0,-0.38281 -0.05664,-0.69141 -0.169922,-0.92578 -0.1875,-0.39063 -0.527343,-0.58594 -1.019531,-0.58594 -0.25,0 -0.455078,0.0254 -0.615234,0.0762 -0.289063,0.0859 -0.542969,0.25782 -0.761719,0.51563 -0.175781,0.20703 -0.290039,0.4209 -0.342773,0.6416 -0.05274,0.2207 -0.0791,0.53613 -0.0791,0.94629 v 3.28711 h -1.054688 v -6.27539 z m 10.902344,3.49805 c 0.02734,0.48828 0.142578,0.88476 0.345703,1.18945 0.386719,0.57031 1.06836,0.85547 2.044922,0.85547 0.4375,0 0.835938,-0.0625 1.195313,-0.1875 0.695312,-0.24219 1.042968,-0.67578 1.042968,-1.30078 0,-0.46875 -0.146484,-0.80274 -0.439453,-1.00196 -0.296875,-0.19531 -0.761718,-0.36523 -1.394531,-0.50976 l -1.166016,-0.26367 c -0.761718,-0.17188 -1.300781,-0.36133 -1.617187,-0.56836 -0.546875,-0.35938 -0.820313,-0.89649 -0.820313,-1.61133 0,-0.77344 0.267579,-1.40821 0.802735,-1.9043 0.535156,-0.49609 1.292969,-0.74414 2.273437,-0.74414 0.902344,0 1.668946,0.21777 2.299805,0.65332 0.630859,0.43555 0.946289,1.13184 0.946289,2.08887 h -1.095703 c -0.05859,-0.46094 -0.183594,-0.81446 -0.375,-1.06055 -0.355469,-0.44922 -0.958984,-0.67383 -1.810547,-0.67383 -0.6875,0 -1.181641,0.14454 -1.482422,0.4336 -0.300781,0.28906 -0.451172,0.625 -0.451172,1.00781 0,0.42187 0.175782,0.73047 0.527344,0.92578 0.230469,0.125 0.751953,0.28125 1.564453,0.46875 l 1.207031,0.27539 c 0.582032,0.13281 1.03125,0.31445 1.347657,0.54492 0.546875,0.40235 0.820312,0.98633 0.820312,1.75196 0,0.95312 -0.346679,1.63476 -1.040039,2.04492 -0.693359,0.41015 -1.499023,0.61523 -2.416992,0.61523 -1.070313,0 -1.908203,-0.27344 -2.513672,-0.82031 -0.605469,-0.54297 -0.902344,-1.2793 -0.890625,-2.20898 z m 7.097656,-3.46875 h 1.072266 V 254 h -1.072266 z m 0,-2.36133 h 1.072266 v 1.19531 h -1.072266 z m 2.65625,2.33203 h 1.001954 v 0.89062 c 0.296875,-0.36718 0.611328,-0.63086 0.943359,-0.79101 0.332031,-0.16016 0.701172,-0.24024 1.107422,-0.24024 0.890625,0 1.492187,0.31055 1.804687,0.93164 0.171875,0.33985 0.257813,0.82618 0.257813,1.45899 V 254 h -1.072266 v -3.95508 c 0,-0.38281 -0.05664,-0.69141 -0.169922,-0.92578 -0.1875,-0.39063 -0.527343,-0.58594 -1.019531,-0.58594 -0.25,0 -0.455078,0.0254 -0.615234,0.0762 -0.289063,0.0859 -0.542969,0.25782 -0.761719,0.51563 -0.175781,0.20703 -0.290039,0.4209 -0.342774,0.6416 -0.05273,0.2207 -0.0791,0.53613 -0.0791,0.94629 v 3.28711 h -1.054688 v -6.27539 z M 98.375,245.39258 h 1.013672 v 4.99804 l 2.707028,-2.66601 h 1.34766 l -2.40234,2.34961 2.53711,3.92578 h -1.34766 l -1.95703,-3.16406 -0.884768,0.80859 V 254 H 98.375 Z"
               style="fill:#000000;fill-opacity:1;fill-rule:nonzero;stroke:none"
               id="path194" /></g><g
             id="g196"
             transform="translate(16,244)"><g
               id="g198" /></g><g
             id="g200" /><g
             id="g202"
             transform="translate(0.5,0.5)"><path
               inkscape:connector-curvature="0"
               d="M 160,250 H 126.37"
               style="fill:none;stroke:#000000;stroke-width:1;stroke-linecap:butt;stroke-linejoin:miter;stroke-miterlimit:10;stroke-dasharray:none;stroke-opacity:1"
               id="path204" /></g><g
             id="g206"><path
               inkscape:connector-curvature="0"
               d="m 121.62,250.5 6.99999,-3.5 -1.74999,3.5 1.74999,3.5 z"
               style="fill:#000000;fill-opacity:1;fill-rule:nonzero;stroke:none"
               id="path208" /></g><g
             id="g210"
             transform="translate(0.5,0.5)"><path
               inkscape:connector-curvature="0"
               d="m 121.12,250 6.99999,-3.5 -1.74999,3.5 1.74999,3.5 z"
               style="fill:none;stroke:#000000;stroke-width:1;stroke-linecap:butt;stroke-linejoin:miter;stroke-miterlimit:10;stroke-dasharray:none;stroke-opacity:1"
               id="path212" /></g><g
             id="g214" /><g
             id="g216"
             transform="translate(0.5,0.5)" /><g
             id="g218"><path
               inkscape:connector-curvature="0"
               d="m 169.5,220.5 h 102 c 4.97055,0 9,4.02943 9,9 v 42 c 0,4.97055 -4.02945,9 -9,9 h -102 c -4.97057,0 -9,-4.02945 -9,-9 v -42 c 0,-4.97057 4.02943,-9 9,-9 z"
               style="fill:#ffffff;fill-opacity:1;fill-rule:nonzero;stroke:none"
               id="path220" /></g><g
             id="g222"
             transform="translate(0.5,0.5)"><path
               inkscape:connector-curvature="0"
               d="m 169,220 h 102 c 4.97055,0 9,4.02943 9,9 v 42 c 0,4.97055 -4.02945,9 -9,9 H 169 c -4.97057,0 -9,-4.02945 -9,-9 v -42 c 0,-4.97057 4.02943,-9 9,-9 z"
               style="fill:none;stroke:#000000;stroke-width:1;stroke-linecap:butt;stroke-linejoin:miter;stroke-miterlimit:10;stroke-dasharray:none;stroke-opacity:1"
               id="path224" /></g><g
             id="g226" /><g
             id="g228"
             transform="translate(173,244)"><g
               id="g230" /></g><g
             id="g232"><path
               inkscape:connector-curvature="0"
               d="m 175.67578,251.22266 c 0.0273,0.48828 0.14258,0.88476 0.3457,1.18945 0.38672,0.57031 1.06836,0.85547 2.04493,0.85547 0.4375,0 0.83593,-0.0625 1.19531,-0.1875 0.69531,-0.24219 1.04297,-0.67578 1.04297,-1.30078 0,-0.46875 -0.14649,-0.80274 -0.43946,-1.00196 -0.29687,-0.19531 -0.76172,-0.36523 -1.39453,-0.50976 l -1.16601,-0.26367 c -0.76172,-0.17188 -1.30078,-0.36133 -1.61719,-0.56836 -0.54688,-0.35938 -0.82031,-0.89649 -0.82031,-1.61133 0,-0.77344 0.26757,-1.40821 0.80273,-1.9043 0.53516,-0.49609 1.29297,-0.74414 2.27344,-0.74414 0.90234,0 1.66894,0.21777 2.2998,0.65332 0.63086,0.43555 0.94629,1.13184 0.94629,2.08887 h -1.0957 c -0.0586,-0.46094 -0.18359,-0.81446 -0.375,-1.06055 -0.35547,-0.44922 -0.95899,-0.67383 -1.81055,-0.67383 -0.6875,0 -1.18164,0.14454 -1.48242,0.4336 -0.30078,0.28906 -0.45117,0.625 -0.45117,1.00781 0,0.42187 0.17578,0.73047 0.52734,0.92578 0.23047,0.125 0.75196,0.28125 1.56446,0.46875 l 1.20703,0.27539 c 0.58203,0.13281 1.03125,0.31445 1.34765,0.54492 0.54688,0.40235 0.82032,0.98633 0.82032,1.75196 0,0.95312 -0.34668,1.63476 -1.04004,2.04492 -0.69336,0.41015 -1.49903,0.61523 -2.417,0.61523 -1.07031,0 -1.9082,-0.27344 -2.51367,-0.82031 -0.60547,-0.54297 -0.90234,-1.2793 -0.89062,-2.20898 z m 11.02637,1.30371 c 0.25976,-0.5293 0.38965,-1.11817 0.38965,-1.76661 0,-0.58593 -0.0937,-1.0625 -0.28125,-1.42968 -0.29688,-0.57813 -0.8086,-0.86719 -1.53516,-0.86719 -0.64453,0 -1.11328,0.24609 -1.40625,0.73828 -0.29297,0.49219 -0.43945,1.08594 -0.43945,1.78125 0,0.66797 0.14648,1.22461 0.43945,1.66992 0.29297,0.44532 0.75781,0.66797 1.39453,0.66797 0.69922,0 1.17871,-0.26465 1.43848,-0.79394 z m 0.65332,-4.17481 c 0.55859,0.53906 0.83789,1.33203 0.83789,2.37891 0,1.01172 -0.2461,1.84765 -0.73828,2.50781 -0.49219,0.66016 -1.25586,0.99023 -2.29102,0.99023 -0.86328,0 -1.54883,-0.29199 -2.05664,-0.87597 -0.50781,-0.58399 -0.76172,-1.36817 -0.76172,-2.35254 0,-1.05469 0.26758,-1.89453 0.80274,-2.51953 0.53515,-0.625 1.2539,-0.9375 2.15625,-0.9375 0.80859,0 1.49218,0.26953 2.05078,0.80859 z M 190.5,247.72461 v 4.16601 c 0,0.32032 0.0508,0.58204 0.15234,0.78516 0.1875,0.375 0.53711,0.5625 1.04883,0.5625 0.73438,0 1.23438,-0.32812 1.5,-0.98437 0.14453,-0.35157 0.2168,-0.83399 0.2168,-1.44727 v -3.08203 h 1.05469 V 254 h -0.9961 l 0.0117,-0.92578 c -0.13672,0.23828 -0.30664,0.43945 -0.50977,0.60351 -0.40234,0.32813 -0.89062,0.49219 -1.46484,0.49219 -0.89453,0 -1.50391,-0.29883 -1.82812,-0.89648 -0.17579,-0.32032 -0.26368,-0.74805 -0.26368,-1.28321 v -4.26562 h 1.07813 z m 5.64648,0 h 1.00196 v 1.08398 c 0.082,-0.21093 0.2832,-0.46777 0.60351,-0.77051 0.32031,-0.30273 0.68946,-0.4541 1.10742,-0.4541 0.0195,0 0.0527,0.002 0.0996,0.006 0.0469,0.004 0.12696,0.0117 0.24024,0.0234 v 1.11328 c -0.0625,-0.0117 -0.12012,-0.0195 -0.17285,-0.0234 -0.0527,-0.004 -0.11036,-0.006 -0.17286,-0.006 -0.53124,0 -0.93945,0.1709 -1.2246,0.5127 -0.28516,0.3418 -0.42774,0.73535 -0.42774,1.18066 V 254 h -1.05469 v -6.27539 z m 8.10059,0.33398 c 0.44336,0.34375 0.70996,0.93555 0.7998,1.77539 h -1.02539 c -0.0625,-0.38672 -0.20507,-0.708 -0.42773,-0.96386 -0.22266,-0.25586 -0.58008,-0.38379 -1.07227,-0.38379 -0.67187,0 -1.15234,0.32812 -1.4414,0.98437 -0.1875,0.42578 -0.28125,0.95117 -0.28125,1.57617 0,0.62891 0.13281,1.15821 0.39843,1.58789 0.26563,0.42969 0.6836,0.64454 1.25391,0.64454 0.4375,0 0.78418,-0.13379 1.04004,-0.40137 0.25586,-0.26758 0.43262,-0.63379 0.53027,-1.09863 h 1.02539 c -0.11718,0.83203 -0.41015,1.44043 -0.8789,1.82519 -0.46875,0.38477 -1.06836,0.57715 -1.79883,0.57715 -0.82031,0 -1.47461,-0.2998 -1.96289,-0.89941 -0.48828,-0.59961 -0.73242,-1.34864 -0.73242,-2.24707 0,-1.10157 0.26758,-1.95899 0.80273,-2.57227 0.53516,-0.61328 1.2168,-0.91992 2.04492,-0.91992 0.70703,0 1.28223,0.17187 1.72559,0.51562 z m 5.76269,-0.16113 c 0.41797,0.20898 0.73633,0.47949 0.95508,0.81152 0.21094,0.31641 0.35157,0.68555 0.42188,1.10743 0.0625,0.28906 0.0937,0.75 0.0937,1.38281 h -4.59961 c 0.0195,0.63672 0.16992,1.14746 0.45117,1.53222 0.28125,0.38477 0.7168,0.57715 1.30664,0.57715 0.55078,0 0.99024,-0.18164 1.31836,-0.54492 0.1875,-0.21094 0.32031,-0.45508 0.39844,-0.73242 h 1.03711 c -0.0274,0.23047 -0.11817,0.4873 -0.27246,0.77051 -0.1543,0.2832 -0.32715,0.51465 -0.51856,0.69433 -0.32031,0.3125 -0.7168,0.52344 -1.18945,0.63282 -0.25391,0.0625 -0.54102,0.0937 -0.86133,0.0937 -0.78125,0 -1.44336,-0.28418 -1.98633,-0.85254 -0.54297,-0.56836 -0.81445,-1.36426 -0.81445,-2.3877 0,-1.00781 0.27344,-1.82617 0.82031,-2.45508 0.54688,-0.6289 1.26172,-0.94336 2.14453,-0.94336 0.44532,0 0.87696,0.1045 1.29492,0.31348 z m 0.38672,2.46387 c -0.043,-0.45703 -0.14257,-0.82227 -0.29882,-1.09571 -0.28907,-0.50781 -0.77149,-0.76171 -1.44727,-0.76171 -0.48438,0 -0.89063,0.1748 -1.21875,0.52441 -0.32813,0.34961 -0.50195,0.79395 -0.52148,1.33301 z m 9.15039,2.64258 c 0.39454,0 0.71875,-0.041 0.97266,-0.12305 0.45313,-0.15235 0.82422,-0.44531 1.11328,-0.87891 0.23047,-0.34765 0.39649,-0.79297 0.49805,-1.33594 0.0586,-0.32421 0.0879,-0.625 0.0879,-0.90234 0,-1.06641 -0.21192,-1.89453 -0.63574,-2.48437 -0.42383,-0.58985 -1.10645,-0.88477 -2.04785,-0.88477 h -2.06836 v 6.60938 h 2.08007 z m -3.25195,-7.61133 h 3.48633 c 1.18359,0 2.10156,0.41992 2.75391,1.25976 0.58203,0.75782 0.87304,1.72852 0.87304,2.91211 0,0.91406 -0.17187,1.74024 -0.51562,2.47852 C 222.28711,253.34766 221.24609,254 219.76953,254 h -3.47461 z m 12.37109,2.50488 c 0.41797,0.20898 0.73633,0.47949 0.95508,0.81152 0.21094,0.31641 0.35157,0.68555 0.42188,1.10743 0.0625,0.28906 0.0937,0.75 0.0937,1.38281 h -4.59961 c 0.0195,0.63672 0.16992,1.14746 0.45117,1.53222 0.28125,0.38477 0.7168,0.57715 1.30664,0.57715 0.55078,0 0.99024,-0.18164 1.31836,-0.54492 0.1875,-0.21094 0.32031,-0.45508 0.39844,-0.73242 h 1.03711 c -0.0274,0.23047 -0.11817,0.4873 -0.27246,0.77051 -0.1543,0.2832 -0.32715,0.51465 -0.51856,0.69433 -0.32031,0.3125 -0.7168,0.52344 -1.18945,0.63282 -0.25391,0.0625 -0.54102,0.0937 -0.86133,0.0937 -0.78125,0 -1.44336,-0.28418 -1.98633,-0.85254 -0.54297,-0.56836 -0.81445,-1.36426 -0.81445,-2.3877 0,-1.00781 0.27344,-1.82617 0.82031,-2.45508 0.54688,-0.6289 1.26172,-0.94336 2.14453,-0.94336 0.44532,0 0.87696,0.1045 1.29492,0.31348 z m 0.38672,2.46387 c -0.043,-0.45703 -0.14257,-0.82227 -0.29882,-1.09571 -0.28907,-0.50781 -0.77149,-0.76171 -1.44727,-0.76171 -0.48437,0 -0.89063,0.1748 -1.21875,0.52441 -0.32813,0.34961 -0.50195,0.79395 -0.52148,1.33301 z m 6.52246,-2.30274 c 0.44336,0.34375 0.70997,0.93555 0.79981,1.77539 h -1.02539 c -0.0625,-0.38672 -0.20508,-0.708 -0.42774,-0.96386 -0.22265,-0.25586 -0.58007,-0.38379 -1.07226,-0.38379 -0.67188,0 -1.15235,0.32812 -1.44141,0.98437 -0.1875,0.42578 -0.28125,0.95117 -0.28125,1.57617 0,0.62891 0.13281,1.15821 0.39844,1.58789 0.26562,0.42969 0.68359,0.64454 1.25391,0.64454 0.4375,0 0.78418,-0.13379 1.04003,-0.40137 0.25586,-0.26758 0.43262,-0.63379 0.53028,-1.09863 h 1.02539 c -0.11719,0.83203 -0.41016,1.44043 -0.87891,1.82519 -0.46875,0.38477 -1.06836,0.57715 -1.79883,0.57715 -0.82031,0 -1.4746,-0.2998 -1.96289,-0.89941 -0.48828,-0.59961 -0.73242,-1.34864 -0.73242,-2.24707 0,-1.10157 0.26758,-1.95899 0.80274,-2.57227 0.53515,-0.61328 1.21679,-0.91992 2.04492,-0.91992 0.70703,0 1.28222,0.17187 1.72558,0.51562 z m 5.78321,4.46778 c 0.25976,-0.5293 0.38965,-1.11817 0.38965,-1.76661 0,-0.58593 -0.0937,-1.0625 -0.28125,-1.42968 -0.29688,-0.57813 -0.8086,-0.86719 -1.53516,-0.86719 -0.64453,0 -1.11328,0.24609 -1.40625,0.73828 -0.29297,0.49219 -0.43945,1.08594 -0.43945,1.78125 0,0.66797 0.14648,1.22461 0.43945,1.66992 0.29297,0.44532 0.75781,0.66797 1.39453,0.66797 0.69922,0 1.17871,-0.26465 1.43848,-0.79394 z m 0.65332,-4.17481 c 0.55859,0.53906 0.83789,1.33203 0.83789,2.37891 0,1.01172 -0.2461,1.84765 -0.73828,2.50781 -0.49219,0.66016 -1.25586,0.99023 -2.29102,0.99023 -0.86328,0 -1.54883,-0.29199 -2.05664,-0.87597 -0.50781,-0.58399 -0.76172,-1.36817 -0.76172,-2.35254 0,-1.05469 0.26758,-1.89453 0.80274,-2.51953 0.53515,-0.625 1.2539,-0.9375 2.15625,-0.9375 0.80859,0 1.49218,0.26953 2.05078,0.80859 z m 3.18554,4.27149 c 0.28516,0.45312 0.74219,0.67968 1.3711,0.67968 0.48828,0 0.88965,-0.20996 1.2041,-0.62988 0.31445,-0.41992 0.47168,-1.02246 0.47168,-1.80762 0,-0.79297 -0.16211,-1.37988 -0.48633,-1.76074 -0.32422,-0.38086 -0.72461,-0.57129 -1.20117,-0.57129 -0.53125,0 -0.96191,0.20313 -1.29199,0.60938 -0.33008,0.40625 -0.49512,1.0039 -0.49512,1.79297 0,0.67187 0.14258,1.23437 0.42773,1.6875 z m 2.36719,-4.70508 c 0.1875,0.11719 0.40039,0.32226 0.63867,0.61523 v -3.16992 h 1.01368 V 254 h -0.94922 v -0.87305 c -0.2461,0.38672 -0.53711,0.66602 -0.87305,0.83789 -0.33594,0.17188 -0.7207,0.25782 -1.1543,0.25782 -0.69922,0 -1.30468,-0.29395 -1.8164,-0.88184 -0.51172,-0.58789 -0.76758,-1.37012 -0.76758,-2.34668 0,-0.91406 0.2334,-1.70606 0.7002,-2.37598 0.46679,-0.66992 1.13378,-1.00488 2.00097,-1.00488 0.48047,0 0.88281,0.10156 1.20703,0.30469 z m 3.20899,-0.16406 h 1.07226 V 254 h -1.07226 z m 0,-2.36133 h 1.07226 v 1.19531 h -1.07226 z m 2.65625,2.33203 h 1.00195 v 0.89062 c 0.29687,-0.36718 0.61133,-0.63086 0.94336,-0.79101 0.33203,-0.16016 0.70117,-0.24024 1.10742,-0.24024 0.89063,0 1.49219,0.31055 1.80469,0.93164 0.17187,0.33985 0.25781,0.82618 0.25781,1.45899 V 254 h -1.07226 v -3.95508 c 0,-0.38281 -0.0566,-0.69141 -0.16993,-0.92578 -0.1875,-0.39063 -0.52734,-0.58594 -1.01953,-0.58594 -0.25,0 -0.45507,0.0254 -0.61523,0.0762 -0.28906,0.0859 -0.54297,0.25782 -0.76172,0.51563 -0.17578,0.20703 -0.29004,0.4209 -0.34277,0.6416 -0.0527,0.2207 -0.0791,0.53613 -0.0791,0.94629 v 3.28711 h -1.05468 v -6.27539 z m 10.17578,0.25195 c 0.19922,0.13672 0.40234,0.33594 0.60937,0.59766 v -0.79102 h 0.97266 v 5.70703 c 0,0.79688 -0.11719,1.42578 -0.35156,1.88672 -0.4375,0.85156 -1.26367,1.27735 -2.47852,1.27735 -0.67578,0 -1.24414,-0.15137 -1.70508,-0.45411 -0.46093,-0.30273 -0.71875,-0.77636 -0.77343,-1.42089 h 1.07226 c 0.0508,0.28125 0.15234,0.49804 0.30469,0.65039 0.23828,0.23437 0.61328,0.35156 1.125,0.35156 0.80859,0 1.33789,-0.28516 1.58789,-0.85547 0.14844,-0.33594 0.2168,-0.93555 0.20508,-1.79883 -0.21094,0.32031 -0.46485,0.5586 -0.76172,0.71485 -0.29688,0.15625 -0.68945,0.23437 -1.17774,0.23437 -0.67968,0 -1.27441,-0.24121 -1.78418,-0.72363 -0.50976,-0.48242 -0.76464,-1.28028 -0.76464,-2.39356 0,-1.05078 0.25683,-1.87109 0.7705,-2.46093 0.51368,-0.58985 1.13379,-0.88477 1.86036,-0.88477 0.49218,0 0.92187,0.12109 1.28906,0.36328 z m 0.1289,1.13086 c -0.32031,-0.375 -0.72851,-0.5625 -1.2246,-0.5625 -0.74219,0 -1.25,0.34766 -1.52344,1.04297 -0.14453,0.37109 -0.2168,0.85742 -0.2168,1.45898 0,0.70704 0.14355,1.24512 0.43066,1.61426 0.28711,0.36914 0.67286,0.55371 1.15723,0.55371 0.75781,0 1.29102,-0.34179 1.59961,-1.02539 0.17188,-0.38672 0.25781,-0.83789 0.25781,-1.35351 0,-0.77735 -0.16015,-1.35352 -0.48047,-1.72852 z"
               style="fill:#000000;fill-opacity:1;fill-rule:nonzero;stroke:none"
               id="path234" /></g><g
             id="g236"
             transform="translate(173,244)"><g
               id="g238" /></g><g
             id="g240" /><g
             id="g242"
             transform="translate(0.5,0.5)"><path
               inkscape:connector-curvature="0"
               d="M 320,250 H 286.37"
               style="fill:none;stroke:#000000;stroke-width:1;stroke-linecap:butt;stroke-linejoin:miter;stroke-miterlimit:10;stroke-dasharray:none;stroke-opacity:1"
               id="path244" /></g><g
             id="g246"><path
               inkscape:connector-curvature="0"
               d="m 281.62,250.5 7,-3.5 -1.75,3.5 1.75,3.5 z"
               style="fill:#000000;fill-opacity:1;fill-rule:nonzero;stroke:none"
               id="path248" /></g><g
             id="g250"
             transform="translate(0.5,0.5)"><path
               inkscape:connector-curvature="0"
               d="m 281.12,250 7,-3.5 -1.75,3.5 1.75,3.5 z"
               style="fill:none;stroke:#000000;stroke-width:1;stroke-linecap:butt;stroke-linejoin:miter;stroke-miterlimit:10;stroke-dasharray:none;stroke-opacity:1"
               id="path252" /></g><g
             id="g254" /><g
             id="g256"
             transform="translate(0.5,0.5)" /><g
             id="g258"><path
               inkscape:connector-curvature="0"
               d="m 329.5,220.5 h 102 c 4.97055,0 9,4.02943 9,9 v 42 c 0,4.97055 -4.02945,9 -9,9 h -102 c -4.97055,0 -9,-4.02945 -9,-9 v -42 c 0,-4.97057 4.02945,-9 9,-9 z"
               style="fill:#ffffff;fill-opacity:1;fill-rule:nonzero;stroke:none"
               id="path260" /></g><g
             id="g262"
             transform="translate(0.5,0.5)"><path
               inkscape:connector-curvature="0"
               d="m 329,220 h 102 c 4.97055,0 9,4.02943 9,9 v 42 c 0,4.97055 -4.02945,9 -9,9 H 329 c -4.97055,0 -9,-4.02945 -9,-9 v -42 c 0,-4.97057 4.02945,-9 9,-9 z"
               style="fill:none;stroke:#000000;stroke-width:1;stroke-linecap:butt;stroke-linejoin:miter;stroke-miterlimit:10;stroke-dasharray:none;stroke-opacity:1"
               id="path264" /></g><g
             id="g266" /><g
             id="g268"
             transform="translate(330,244)"><g
               id="g270" /></g><g
             id="g272"><path
               inkscape:connector-curvature="0"
               d="m 338.07812,246.01953 c 0.60157,0.57422 0.93555,1.22656 1.00196,1.95703 h -1.13672 c -0.12891,-0.55469 -0.38574,-0.99414 -0.77051,-1.31836 -0.38477,-0.32422 -0.9248,-0.48633 -1.62012,-0.48633 -0.84765,0 -1.53222,0.29786 -2.05371,0.89356 -0.52148,0.5957 -0.78222,1.50879 -0.78222,2.73926 0,1.00781 0.23535,1.82519 0.70605,2.45214 0.4707,0.62696 1.17285,0.94043 2.10645,0.94043 0.85937,0 1.51367,-0.33007 1.96289,-0.99023 0.23828,-0.34766 0.41601,-0.80469 0.5332,-1.37109 h 1.13672 c -0.10156,0.90625 -0.4375,1.66601 -1.00781,2.27929 -0.6836,0.73828 -1.60547,1.10743 -2.76563,1.10743 -1,0 -1.83984,-0.30274 -2.51953,-0.90821 -0.89453,-0.80078 -1.3418,-2.03711 -1.3418,-3.70898 0,-1.26953 0.33594,-2.31055 1.00782,-3.12305 0.72656,-0.88281 1.72851,-1.32422 3.00585,-1.32422 1.08985,0 1.93555,0.28711 2.53711,0.86133 z m 2.35157,-0.65625 h 1.05468 v 3.21094 c 0.25,-0.31641 0.47461,-0.53906 0.67383,-0.66797 0.33985,-0.22266 0.76367,-0.33399 1.27149,-0.33399 0.91015,0 1.52734,0.31836 1.85156,0.95508 0.17578,0.34766 0.26367,0.83008 0.26367,1.44727 V 254 h -1.08398 v -3.95508 c 0,-0.46094 -0.0586,-0.79883 -0.17578,-1.01367 -0.19141,-0.34375 -0.55079,-0.51563 -1.07813,-0.51563 -0.4375,0 -0.83398,0.15039 -1.18945,0.45118 -0.35547,0.30078 -0.53321,0.86914 -0.53321,1.70507 V 254 h -1.05468 z m 7.81445,7.6875 c 0.22266,0.17578 0.48633,0.26367 0.79102,0.26367 0.37109,0 0.73046,-0.0859 1.07812,-0.25781 0.58594,-0.28516 0.87891,-0.75195 0.87891,-1.40039 v -0.84961 c -0.12891,0.082 -0.29492,0.15039 -0.49805,0.20508 -0.20313,0.0547 -0.40234,0.0937 -0.59766,0.11719 l -0.63867,0.082 c -0.38281,0.0508 -0.66992,0.13086 -0.86133,0.24023 -0.32421,0.18359 -0.48632,0.47656 -0.48632,0.87891 0,0.30468 0.11132,0.54492 0.33398,0.7207 z m 2.2207,-2.85352 c 0.24219,-0.0312 0.4043,-0.13281 0.48633,-0.30468 0.0469,-0.0937 0.0703,-0.22852 0.0703,-0.4043 0,-0.35937 -0.12793,-0.62012 -0.38379,-0.78223 -0.25586,-0.16211 -0.62207,-0.24316 -1.09863,-0.24316 -0.55078,0 -0.9414,0.14844 -1.17187,0.44531 -0.12891,0.16406 -0.21289,0.40821 -0.25196,0.73242 h -0.98437 c 0.0195,-0.77343 0.27051,-1.31152 0.75293,-1.61425 0.48242,-0.30274 1.04199,-0.45411 1.67871,-0.45411 0.73828,0 1.33789,0.14063 1.79883,0.42188 0.45703,0.28125 0.68554,0.71875 0.68554,1.3125 v 3.61523 c 0,0.10938 0.0225,0.19727 0.0674,0.26368 0.0449,0.0664 0.13965,0.0996 0.28418,0.0996 0.0469,0 0.0996,-0.003 0.1582,-0.009 0.0586,-0.006 0.12109,-0.0146 0.1875,-0.0264 v 0.7793 c -0.16406,0.0469 -0.28906,0.0762 -0.375,0.0879 -0.0859,0.0117 -0.20313,0.0176 -0.35156,0.0176 -0.36328,0 -0.62696,-0.1289 -0.79102,-0.38671 -0.0859,-0.13672 -0.14648,-0.33008 -0.18164,-0.58008 -0.21484,0.28125 -0.52344,0.52539 -0.92578,0.73242 -0.40234,0.20703 -0.8457,0.31055 -1.33008,0.31055 -0.58203,0 -1.05762,-0.17676 -1.42676,-0.53028 -0.36914,-0.35351 -0.55371,-0.7959 -0.55371,-1.32715 0,-0.58203 0.18164,-1.0332 0.54492,-1.35351 0.36329,-0.32031 0.83985,-0.51758 1.42969,-0.5918 l 1.68164,-0.21094 z m 3.3086,-2.47265 h 1.00195 v 0.89062 c 0.29688,-0.36718 0.61133,-0.63086 0.94336,-0.79101 0.33203,-0.16016 0.70117,-0.24024 1.10742,-0.24024 0.89063,0 1.49219,0.31055 1.80469,0.93164 0.17187,0.33985 0.25781,0.82618 0.25781,1.45899 V 254 h -1.07226 v -3.95508 c 0,-0.38281 -0.0566,-0.69141 -0.16993,-0.92578 -0.1875,-0.39063 -0.52734,-0.58594 -1.01953,-0.58594 -0.25,0 -0.45508,0.0254 -0.61523,0.0762 -0.28906,0.0859 -0.54297,0.25782 -0.76172,0.51563 -0.17578,0.20703 -0.29004,0.4209 -0.34277,0.6416 -0.0527,0.2207 -0.0791,0.53613 -0.0791,0.94629 v 3.28711 h -1.05468 v -6.27539 z m 6.67187,0 h 1.00196 v 0.89062 c 0.29687,-0.36718 0.61132,-0.63086 0.94335,-0.79101 0.33204,-0.16016 0.70118,-0.24024 1.10743,-0.24024 0.89062,0 1.49218,0.31055 1.80468,0.93164 0.17188,0.33985 0.25782,0.82618 0.25782,1.45899 V 254 h -1.07227 v -3.95508 c 0,-0.38281 -0.0566,-0.69141 -0.16992,-0.92578 -0.1875,-0.39063 -0.52735,-0.58594 -1.01953,-0.58594 -0.25,0 -0.45508,0.0254 -0.61524,0.0762 -0.28906,0.0859 -0.54296,0.25782 -0.76172,0.51563 -0.17578,0.20703 -0.29004,0.4209 -0.34277,0.6416 -0.0527,0.2207 -0.0791,0.53613 -0.0791,0.94629 v 3.28711 h -1.05469 v -6.27539 z m 10.58008,0.17285 c 0.41797,0.20898 0.73633,0.47949 0.95508,0.81152 0.21094,0.31641 0.35156,0.68555 0.42187,1.10743 0.0625,0.28906 0.0937,0.75 0.0937,1.38281 h -4.59961 c 0.0195,0.63672 0.16993,1.14746 0.45118,1.53222 0.28125,0.38477 0.71679,0.57715 1.30664,0.57715 0.55078,0 0.99023,-0.18164 1.31836,-0.54492 0.1875,-0.21094 0.32031,-0.45508 0.39843,-0.73242 h 1.03711 c -0.0273,0.23047 -0.11816,0.4873 -0.27246,0.77051 -0.1543,0.2832 -0.32715,0.51465 -0.51855,0.69433 -0.32032,0.3125 -0.7168,0.52344 -1.18946,0.63282 -0.2539,0.0625 -0.54101,0.0937 -0.86132,0.0937 -0.78125,0 -1.44336,-0.28418 -1.98633,-0.85254 -0.54297,-0.56836 -0.81446,-1.36426 -0.81446,-2.3877 0,-1.00781 0.27344,-1.82617 0.82032,-2.45508 0.54687,-0.6289 1.26172,-0.94336 2.14453,-0.94336 0.44531,0 0.87695,0.1045 1.29492,0.31348 z m 0.38672,2.46387 c -0.043,-0.45703 -0.14258,-0.82227 -0.29883,-1.09571 -0.28906,-0.50781 -0.77148,-0.76171 -1.44727,-0.76171 -0.48437,0 -0.89062,0.1748 -1.21874,0.52441 -0.32813,0.34961 -0.50196,0.79395 -0.52149,1.33301 z m 2.40625,-4.96875 h 1.05469 V 254 h -1.05469 z m 9.40039,7.61133 c 0.39453,0 0.71875,-0.041 0.97266,-0.12305 0.45312,-0.15235 0.82421,-0.44531 1.11328,-0.87891 0.23047,-0.34765 0.39648,-0.79297 0.49804,-1.33594 0.0586,-0.32421 0.0879,-0.625 0.0879,-0.90234 0,-1.06641 -0.21191,-1.89453 -0.63574,-2.48437 -0.42383,-0.58985 -1.10644,-0.88477 -2.04785,-0.88477 h -2.06836 v 6.60938 h 2.08008 z m -3.25195,-7.61133 h 3.48632 c 1.1836,0 2.10157,0.41992 2.75391,1.25976 0.58203,0.75782 0.87305,1.72852 0.87305,2.91211 0,0.91406 -0.17188,1.74024 -0.51563,2.47852 C 385.95898,253.34766 384.91797,254 383.44141,254 h -3.47461 z m 12.37109,2.50488 c 0.41797,0.20898 0.73633,0.47949 0.95508,0.81152 0.21094,0.31641 0.35156,0.68555 0.42187,1.10743 0.0625,0.28906 0.0937,0.75 0.0937,1.38281 h -4.59961 c 0.0195,0.63672 0.16993,1.14746 0.45118,1.53222 0.28125,0.38477 0.71679,0.57715 1.30664,0.57715 0.55078,0 0.99023,-0.18164 1.31836,-0.54492 0.1875,-0.21094 0.32031,-0.45508 0.39843,-0.73242 h 1.03711 c -0.0273,0.23047 -0.11816,0.4873 -0.27246,0.77051 -0.1543,0.2832 -0.32715,0.51465 -0.51855,0.69433 -0.32032,0.3125 -0.7168,0.52344 -1.18946,0.63282 -0.2539,0.0625 -0.54101,0.0937 -0.86132,0.0937 -0.78125,0 -1.44336,-0.28418 -1.98633,-0.85254 -0.54297,-0.56836 -0.81446,-1.36426 -0.81446,-2.3877 0,-1.00781 0.27344,-1.82617 0.82032,-2.45508 0.54687,-0.6289 1.26172,-0.94336 2.14453,-0.94336 0.44531,0 0.87695,0.1045 1.29492,0.31348 z m 0.38672,2.46387 c -0.043,-0.45703 -0.14258,-0.82227 -0.29883,-1.09571 -0.28906,-0.50781 -0.77148,-0.76171 -1.44727,-0.76171 -0.48437,0 -0.89062,0.1748 -1.21874,0.52441 -0.32813,0.34961 -0.50196,0.79395 -0.52149,1.33301 z m 6.52246,-2.30274 c 0.44336,0.34375 0.70996,0.93555 0.7998,1.77539 h -1.02539 c -0.0625,-0.38672 -0.20507,-0.708 -0.42773,-0.96386 -0.22266,-0.25586 -0.58008,-0.38379 -1.07227,-0.38379 -0.67187,0 -1.15234,0.32812 -1.4414,0.98437 -0.1875,0.42578 -0.28125,0.95117 -0.28125,1.57617 0,0.62891 0.13281,1.15821 0.39844,1.58789 0.26562,0.42969 0.68359,0.64454 1.2539,0.64454 0.4375,0 0.78418,-0.13379 1.04004,-0.40137 0.25586,-0.26758 0.43262,-0.63379 0.53027,-1.09863 h 1.02539 c -0.11718,0.83203 -0.41015,1.44043 -0.8789,1.82519 -0.46875,0.38477 -1.06836,0.57715 -1.79883,0.57715 -0.82031,0 -1.47461,-0.2998 -1.96289,-0.89941 -0.48828,-0.59961 -0.73242,-1.34864 -0.73242,-2.24707 0,-1.10157 0.26758,-1.95899 0.80273,-2.57227 0.53516,-0.61328 1.2168,-0.91992 2.04492,-0.91992 0.70703,0 1.28223,0.17187 1.72559,0.51562 z m 5.7832,4.46778 c 0.25977,-0.5293 0.38965,-1.11817 0.38965,-1.76661 0,-0.58593 -0.0937,-1.0625 -0.28125,-1.42968 -0.29687,-0.57813 -0.80859,-0.86719 -1.53516,-0.86719 -0.64453,0 -1.11328,0.24609 -1.40624,0.73828 -0.29297,0.49219 -0.43946,1.08594 -0.43946,1.78125 0,0.66797 0.14649,1.22461 0.43946,1.66992 0.29296,0.44532 0.75781,0.66797 1.39453,0.66797 0.69921,0 1.17871,-0.26465 1.43847,-0.79394 z m 0.65332,-4.17481 c 0.5586,0.53906 0.83789,1.33203 0.83789,2.37891 0,1.01172 -0.24609,1.84765 -0.73828,2.50781 -0.49219,0.66016 -1.25586,0.99023 -2.29101,0.99023 -0.86328,0 -1.54883,-0.29199 -2.05664,-0.87597 -0.50782,-0.58399 -0.76172,-1.36817 -0.76172,-2.35254 0,-1.05469 0.26758,-1.89453 0.80273,-2.51953 0.53516,-0.625 1.25391,-0.9375 2.15625,-0.9375 0.8086,0 1.49219,0.26953 2.05078,0.80859 z m 3.18555,4.27149 c 0.28516,0.45312 0.74219,0.67968 1.37109,0.67968 0.48828,0 0.88965,-0.20996 1.2041,-0.62988 0.31446,-0.41992 0.47168,-1.02246 0.47168,-1.80762 0,-0.79297 -0.1621,-1.37988 -0.48632,-1.76074 -0.32422,-0.38086 -0.72461,-0.57129 -1.20118,-0.57129 -0.53124,0 -0.96191,0.20313 -1.29199,0.60938 -0.33008,0.40625 -0.49511,1.0039 -0.49511,1.79297 0,0.67187 0.14257,1.23437 0.42773,1.6875 z m 2.36719,-4.70508 c 0.1875,0.11719 0.40039,0.32226 0.63867,0.61523 v -3.16992 h 1.01367 V 254 h -0.94922 v -0.87305 c -0.24609,0.38672 -0.53711,0.66602 -0.87304,0.83789 -0.33594,0.17188 -0.72071,0.25782 -1.1543,0.25782 -0.69922,0 -1.30469,-0.29395 -1.81641,-0.88184 -0.51172,-0.58789 -0.76758,-1.37012 -0.76758,-2.34668 0,-0.91406 0.2334,-1.70606 0.7002,-2.37598 0.4668,-0.66992 1.13379,-1.00488 2.00098,-1.00488 0.48047,0 0.88281,0.10156 1.20703,0.30469 z m 3.20898,-0.16406 h 1.07227 V 254 h -1.07227 z m 0,-2.36133 h 1.07227 v 1.19531 h -1.07227 z m 2.65625,2.33203 h 1.00195 v 0.89062 c 0.29688,-0.36718 0.61133,-0.63086 0.94336,-0.79101 0.33204,-0.16016 0.70118,-0.24024 1.10743,-0.24024 0.89062,0 1.49218,0.31055 1.80468,0.93164 0.17188,0.33985 0.25782,0.82618 0.25782,1.45899 V 254 h -1.07227 v -3.95508 c 0,-0.38281 -0.0566,-0.69141 -0.16992,-0.92578 -0.1875,-0.39063 -0.52734,-0.58594 -1.01953,-0.58594 -0.25,0 -0.45508,0.0254 -0.61524,0.0762 -0.28906,0.0859 -0.54297,0.25782 -0.76172,0.51563 -0.17578,0.20703 -0.29004,0.4209 -0.34277,0.6416 -0.0527,0.2207 -0.0791,0.53613 -0.0791,0.94629 v 3.28711 h -1.05469 v -6.27539 z m 10.17578,0.25195 c 0.19922,0.13672 0.40235,0.33594 0.60938,0.59766 v -0.79102 h 0.97265 v 5.70703 c 0,0.79688 -0.11718,1.42578 -0.35156,1.88672 -0.4375,0.85156 -1.26367,1.27735 -2.47851,1.27735 -0.67579,0 -1.24414,-0.15137 -1.70508,-0.45411 -0.46094,-0.30273 -0.71875,-0.77636 -0.77344,-1.42089 h 1.07227 c 0.0508,0.28125 0.15234,0.49804 0.30468,0.65039 0.23828,0.23437 0.61328,0.35156 1.125,0.35156 0.8086,0 1.33789,-0.28516 1.5879,-0.85547 0.14843,-0.33594 0.21679,-0.93555 0.20507,-1.79883 -0.21093,0.32031 -0.46484,0.5586 -0.76172,0.71485 -0.29687,0.15625 -0.68945,0.23437 -1.17773,0.23437 -0.67969,0 -1.27442,-0.24121 -1.78418,-0.72363 -0.50977,-0.48242 -0.76465,-1.28028 -0.76465,-2.39356 0,-1.05078 0.25684,-1.87109 0.77051,-2.46093 0.51367,-0.58985 1.13379,-0.88477 1.86035,-0.88477 0.49219,0 0.92188,0.12109 1.28906,0.36328 z m 0.12891,1.13086 c -0.32031,-0.375 -0.72852,-0.5625 -1.22461,-0.5625 -0.74219,0 -1.25,0.34766 -1.52344,1.04297 -0.14453,0.37109 -0.21679,0.85742 -0.21679,1.45898 0,0.70704 0.14355,1.24512 0.43066,1.61426 0.28711,0.36914 0.67285,0.55371 1.15723,0.55371 0.75781,0 1.29101,-0.34179 1.59961,-1.02539 0.17187,-0.38672 0.25781,-0.83789 0.25781,-1.35351 0,-0.77735 -0.16016,-1.35352 -0.48047,-1.72852 z"
               style="fill:#000000;fill-opacity:1;fill-rule:nonzero;stroke:none"
               id="path274" /></g><g
             id="g276"
             transform="translate(330,244)"><g
               id="g278" /></g><g
             id="g280" /><g
             id="g282"
             transform="translate(0.5,0.5)"><path
               inkscape:connector-curvature="0"
               d="m 380,170 v 43.63"
               style="fill:none;stroke:#000000;stroke-width:1;stroke-linecap:butt;stroke-linejoin:miter;stroke-miterlimit:10;stroke-dasharray:none;stroke-opacity:1"
               id="path284" /></g><g
             id="g286"><path
               inkscape:connector-curvature="0"
               d="m 380.5,219.38 -3.5,-7 3.5,1.75 3.5,-1.75 z"
               style="fill:#000000;fill-opacity:1;fill-rule:nonzero;stroke:none"
               id="path288" /></g><g
             id="g290"
             transform="translate(0.5,0.5)"><path
               inkscape:connector-curvature="0"
               d="m 380,218.88 -3.5,-7 3.5,1.75 3.5,-1.75 z"
               style="fill:none;stroke:#000000;stroke-width:1;stroke-linecap:butt;stroke-linejoin:miter;stroke-miterlimit:10;stroke-dasharray:none;stroke-opacity:1"
               id="path292" /></g><g
             id="g294" /><g
             id="g296"
             transform="translate(0.5,0.5)" /><g
             id="g298"><path
               inkscape:connector-curvature="0"
               d="m 329.5,110.5 h 102 c 4.97055,0 9,4.02943 9,9 v 42 c 0,4.97056 -4.02945,9 -9,9 h -102 c -4.97055,0 -9,-4.02944 -9,-9 v -42 c 0,-4.97057 4.02945,-9 9,-9 z"
               style="fill:#ffffff;fill-opacity:1;fill-rule:nonzero;stroke:none"
               id="path300" /></g><g
             id="g302"
             transform="translate(0.5,0.5)"><path
               inkscape:connector-curvature="0"
               d="m 329,110 h 102 c 4.97055,0 9,4.02943 9,9 v 42 c 0,4.97056 -4.02945,9 -9,9 H 329 c -4.97055,0 -9,-4.02944 -9,-9 v -42 c 0,-4.97057 4.02945,-9 9,-9 z"
               style="fill:none;stroke:#000000;stroke-width:1;stroke-linecap:butt;stroke-linejoin:miter;stroke-miterlimit:10;stroke-dasharray:none;stroke-opacity:1"
               id="path304" /></g><g
             id="g306" /><g
             id="g308"
             transform="translate(357,134)"><g
               id="g310" /></g><g
             id="g312"><path
               inkscape:connector-curvature="0"
               d="m 365.07812,136.01953 c 0.60157,0.57422 0.93555,1.22656 1.00196,1.95703 h -1.13672 c -0.12891,-0.55469 -0.38574,-0.99414 -0.77051,-1.31836 -0.38477,-0.32422 -0.9248,-0.48633 -1.62012,-0.48633 -0.84765,0 -1.53222,0.29786 -2.05371,0.89356 -0.52148,0.5957 -0.78222,1.50879 -0.78222,2.73926 0,1.00781 0.23535,1.82519 0.70605,2.45214 0.4707,0.62696 1.17285,0.94043 2.10645,0.94043 0.85937,0 1.51367,-0.33007 1.96289,-0.99023 0.23828,-0.34766 0.41601,-0.80469 0.5332,-1.37109 h 1.13672 c -0.10156,0.90625 -0.4375,1.66601 -1.00781,2.27929 -0.6836,0.73828 -1.60547,1.10743 -2.76563,1.10743 -1,0 -1.83984,-0.30274 -2.51953,-0.90821 -0.89453,-0.80078 -1.3418,-2.03711 -1.3418,-3.70898 0,-1.26953 0.33594,-2.31055 1.00782,-3.12305 0.72656,-0.88281 1.72851,-1.32422 3.00585,-1.32422 1.08985,0 1.93555,0.28711 2.53711,0.86133 z m 2.35157,-0.65625 h 1.05468 v 3.21094 c 0.25,-0.31641 0.47461,-0.53906 0.67383,-0.66797 0.33985,-0.22266 0.76367,-0.33399 1.27149,-0.33399 0.91015,0 1.52734,0.31836 1.85156,0.95508 0.17578,0.34766 0.26367,0.83008 0.26367,1.44727 V 144 h -1.08398 v -3.95508 c 0,-0.46094 -0.0586,-0.79883 -0.17578,-1.01367 -0.19141,-0.34375 -0.55079,-0.51563 -1.07813,-0.51563 -0.4375,0 -0.83398,0.15039 -1.18945,0.45118 -0.35547,0.30078 -0.53321,0.86914 -0.53321,1.70507 V 144 h -1.05468 z m 7.81445,7.6875 c 0.22266,0.17578 0.48633,0.26367 0.79102,0.26367 0.37109,0 0.73046,-0.0859 1.07812,-0.25781 0.58594,-0.28516 0.87891,-0.75195 0.87891,-1.40039 v -0.84961 c -0.12891,0.082 -0.29492,0.15039 -0.49805,0.20508 -0.20313,0.0547 -0.40234,0.0937 -0.59766,0.11719 l -0.63867,0.082 c -0.38281,0.0508 -0.66992,0.13086 -0.86133,0.24023 -0.32421,0.18359 -0.48632,0.47656 -0.48632,0.87891 0,0.30468 0.11132,0.54492 0.33398,0.7207 z m 2.2207,-2.85352 c 0.24219,-0.0312 0.4043,-0.13281 0.48633,-0.30468 0.0469,-0.0937 0.0703,-0.22852 0.0703,-0.4043 0,-0.35937 -0.12793,-0.62012 -0.38379,-0.78223 -0.25586,-0.16211 -0.62207,-0.24316 -1.09863,-0.24316 -0.55078,0 -0.9414,0.14844 -1.17187,0.44531 -0.12891,0.16406 -0.21289,0.40821 -0.25196,0.73242 h -0.98437 c 0.0195,-0.77343 0.27051,-1.31152 0.75293,-1.61425 0.48242,-0.30274 1.04199,-0.45411 1.67871,-0.45411 0.73828,0 1.33789,0.14063 1.79883,0.42188 0.45703,0.28125 0.68554,0.71875 0.68554,1.3125 v 3.61523 c 0,0.10938 0.0225,0.19727 0.0674,0.26368 0.0449,0.0664 0.13965,0.0996 0.28418,0.0996 0.0469,0 0.0996,-0.003 0.1582,-0.009 0.0586,-0.006 0.12109,-0.0146 0.1875,-0.0264 v 0.7793 c -0.16406,0.0469 -0.28906,0.0762 -0.375,0.0879 -0.0859,0.0117 -0.20313,0.0176 -0.35156,0.0176 -0.36328,0 -0.62696,-0.1289 -0.79102,-0.38671 -0.0859,-0.13672 -0.14648,-0.33008 -0.18164,-0.58008 -0.21484,0.28125 -0.52344,0.52539 -0.92578,0.73242 -0.40234,0.20703 -0.8457,0.31055 -1.33008,0.31055 -0.58203,0 -1.05762,-0.17676 -1.42676,-0.53028 -0.36914,-0.35351 -0.55371,-0.7959 -0.55371,-1.32715 0,-0.58203 0.18164,-1.0332 0.54492,-1.35351 0.36329,-0.32031 0.83985,-0.51758 1.42969,-0.5918 l 1.68164,-0.21094 z m 3.3086,-2.47265 h 1.00195 v 0.89062 c 0.29688,-0.36718 0.61133,-0.63086 0.94336,-0.79101 0.33203,-0.16016 0.70117,-0.24024 1.10742,-0.24024 0.89063,0 1.49219,0.31055 1.80469,0.93164 0.17187,0.33985 0.25781,0.82618 0.25781,1.45899 V 144 h -1.07226 v -3.95508 c 0,-0.38281 -0.0566,-0.69141 -0.16993,-0.92578 -0.1875,-0.39063 -0.52734,-0.58594 -1.01953,-0.58594 -0.25,0 -0.45508,0.0254 -0.61523,0.0762 -0.28906,0.0859 -0.54297,0.25782 -0.76172,0.51563 -0.17578,0.20703 -0.29004,0.4209 -0.34277,0.6416 -0.0527,0.2207 -0.0791,0.53613 -0.0791,0.94629 v 3.28711 h -1.05468 v -6.27539 z m 6.67187,0 h 1.00196 v 0.89062 c 0.29687,-0.36718 0.61132,-0.63086 0.94335,-0.79101 0.33204,-0.16016 0.70118,-0.24024 1.10743,-0.24024 0.89062,0 1.49218,0.31055 1.80468,0.93164 0.17188,0.33985 0.25782,0.82618 0.25782,1.45899 V 144 h -1.07227 v -3.95508 c 0,-0.38281 -0.0566,-0.69141 -0.16992,-0.92578 -0.1875,-0.39063 -0.52735,-0.58594 -1.01953,-0.58594 -0.25,0 -0.45508,0.0254 -0.61524,0.0762 -0.28906,0.0859 -0.54296,0.25782 -0.76172,0.51563 -0.17578,0.20703 -0.29004,0.4209 -0.34277,0.6416 -0.0527,0.2207 -0.0791,0.53613 -0.0791,0.94629 v 3.28711 h -1.05469 v -6.27539 z m 10.58008,0.17285 c 0.41797,0.20898 0.73633,0.47949 0.95508,0.81152 0.21094,0.31641 0.35156,0.68555 0.42187,1.10743 0.0625,0.28906 0.0937,0.75 0.0937,1.38281 h -4.59961 c 0.0195,0.63672 0.16993,1.14746 0.45118,1.53222 0.28125,0.38477 0.71679,0.57715 1.30664,0.57715 0.55078,0 0.99023,-0.18164 1.31836,-0.54492 0.1875,-0.21094 0.32031,-0.45508 0.39843,-0.73242 h 1.03711 c -0.0273,0.23047 -0.11816,0.4873 -0.27246,0.77051 -0.1543,0.2832 -0.32715,0.51465 -0.51855,0.69433 -0.32032,0.3125 -0.7168,0.52344 -1.18946,0.63282 -0.2539,0.0625 -0.54101,0.0937 -0.86132,0.0937 -0.78125,0 -1.44336,-0.28418 -1.98633,-0.85254 -0.54297,-0.56836 -0.81446,-1.36426 -0.81446,-2.3877 0,-1.00781 0.27344,-1.82617 0.82032,-2.45508 0.54687,-0.6289 1.26172,-0.94336 2.14453,-0.94336 0.44531,0 0.87695,0.1045 1.29492,0.31348 z m 0.38672,2.46387 c -0.043,-0.45703 -0.14258,-0.82227 -0.29883,-1.09571 -0.28906,-0.50781 -0.77148,-0.76171 -1.44727,-0.76171 -0.48437,0 -0.89062,0.1748 -1.21874,0.52441 -0.32813,0.34961 -0.50196,0.79395 -0.52149,1.33301 z m 2.40625,-4.96875 h 1.05469 V 144 h -1.05469 z"
               style="fill:#000000;fill-opacity:1;fill-rule:nonzero;stroke:none"
               id="path314" /></g><g
             id="g316"
             transform="translate(357,134)"><g
               id="g318" /></g><g
             id="g320" /><g
             id="g322"
             transform="translate(0.5,0.5)"><path
               inkscape:connector-curvature="0"
               d="m 510,100 c 0,0 -5,6.66667 -15,20 -10,13.33334 -13.33331,13.33334 -10,0 3.33334,-13.33333 -6.83331,-8.16667 -30.5,15.5"
               style="fill:none;stroke:#000000;stroke-width:1;stroke-linecap:butt;stroke-linejoin:miter;stroke-miterlimit:10;stroke-dasharray:none;stroke-opacity:1"
               id="path324" /></g><g
             id="g326"><path
               inkscape:connector-curvature="0"
               d="M 451.29001,139.71001 453.76999,132.28 455,136 l 3.72,1.22999 z"
               style="fill:#000000;fill-opacity:1;fill-rule:nonzero;stroke:none"
               id="path328" /></g><g
             id="g330"
             transform="translate(0.5,0.5)"><path
               inkscape:connector-curvature="0"
               d="m 450.79001,139.21001 2.47998,-7.43001 1.23001,3.72 3.72,1.22999 z"
               style="fill:none;stroke:#000000;stroke-width:1;stroke-linecap:butt;stroke-linejoin:miter;stroke-miterlimit:10;stroke-dasharray:none;stroke-opacity:1"
               id="path332" /></g><g
             id="g334" /><g
             id="g336"
             transform="translate(0.5,0.5)" /><g
             id="g338" /><g
             id="g340"
             transform="translate(494,84)"><g
               id="g342" /></g><g
             id="g344"><path
               inkscape:connector-curvature="0"
               d="m 495.91406,85.392578 h 1.37695 l 4.34766,6.972656 v -6.972656 h 1.10742 V 94 h -1.30664 l -4.41211,-6.966797 V 94 h -1.11328 z m 12.44434,7.133789 c 0.25976,-0.529297 0.38965,-1.118164 0.38965,-1.766601 0,-0.585938 -0.0937,-1.0625 -0.28125,-1.429688 -0.29688,-0.578125 -0.8086,-0.867187 -1.53516,-0.867187 -0.64453,0 -1.11328,0.246093 -1.40625,0.738281 -0.29297,0.492187 -0.43945,1.085937 -0.43945,1.78125 0,0.667969 0.14648,1.224609 0.43945,1.669922 0.29297,0.445312 0.75781,0.667968 1.39453,0.667968 0.69922,0 1.17871,-0.264648 1.43848,-0.793945 z m 0.65332,-4.174805 c 0.55859,0.539063 0.83789,1.332032 0.83789,2.378907 0,1.011718 -0.2461,1.847656 -0.73828,2.507812 -0.49219,0.660156 -1.25586,0.990235 -2.29102,0.990235 -0.86328,0 -1.54883,-0.291993 -2.05664,-0.875977 -0.50781,-0.583984 -0.76172,-1.368164 -0.76172,-2.352539 0,-1.054688 0.26758,-1.894531 0.80274,-2.519531 0.53515,-0.625 1.2539,-0.9375 2.15625,-0.9375 0.80859,0 1.49218,0.269531 2.05078,0.808593 z m 2.08984,-0.597656 h 1.07227 V 94 h -1.07227 z m 0,-2.361328 h 1.07227 v 1.195313 h -1.07227 z m 3.28321,6.638672 c 0.0312,0.351562 0.11914,0.621094 0.26367,0.808594 0.26562,0.339843 0.72656,0.509765 1.38281,0.509765 0.39062,0 0.73437,-0.08496 1.03125,-0.254882 0.29687,-0.169922 0.44531,-0.432618 0.44531,-0.788086 0,-0.269532 -0.11914,-0.47461 -0.35742,-0.615235 -0.15234,-0.08594 -0.45313,-0.185547 -0.90234,-0.298828 l -0.83789,-0.210937 c -0.53516,-0.132813 -0.92969,-0.28125 -1.1836,-0.445313 -0.45312,-0.285156 -0.67969,-0.679687 -0.67969,-1.183594 0,-0.59375 0.21387,-1.074218 0.64161,-1.441406 0.42773,-0.367187 1.00293,-0.550781 1.72558,-0.550781 0.94531,0 1.62695,0.277344 2.04492,0.832031 0.26172,0.351563 0.38868,0.730469 0.38086,1.136719 h -0.99609 c -0.0195,-0.238281 -0.10352,-0.455078 -0.25195,-0.650391 -0.24219,-0.277344 -0.66211,-0.416015 -1.25977,-0.416015 -0.39844,0 -0.70019,0.07617 -0.90527,0.228515 -0.20508,0.152344 -0.30762,0.353516 -0.30762,0.603516 0,0.273437 0.13477,0.492187 0.4043,0.65625 0.15625,0.09766 0.38672,0.183594 0.6914,0.257812 l 0.69727,0.169922 c 0.75781,0.183594 1.26562,0.361328 1.52344,0.533203 0.41015,0.269532 0.61523,0.69336 0.61523,1.271485 0,0.558593 -0.21191,1.041015 -0.63574,1.447265 -0.42383,0.40625 -1.06934,0.609375 -1.93652,0.609375 -0.9336,0 -1.59473,-0.211914 -1.9834,-0.635742 -0.38868,-0.423828 -0.59668,-0.948242 -0.62403,-1.573242 z m 9.28124,-4.133789 c 0.41797,0.208984 0.73633,0.479492 0.95508,0.811523 0.21094,0.316407 0.35157,0.685547 0.42188,1.107422 0.0625,0.289063 0.0937,0.75 0.0937,1.382813 h -4.59961 c 0.0195,0.636718 0.16992,1.147461 0.45117,1.532226 0.28125,0.384766 0.7168,0.577149 1.30664,0.577149 0.55078,0 0.99024,-0.181641 1.31836,-0.544922 0.1875,-0.210938 0.32031,-0.455078 0.39844,-0.732422 h 1.03711 c -0.0273,0.230469 -0.11817,0.487305 -0.27246,0.770508 -0.1543,0.283203 -0.32715,0.514648 -0.51856,0.694336 -0.32031,0.3125 -0.7168,0.523437 -1.18945,0.632812 -0.25391,0.0625 -0.54102,0.09375 -0.86133,0.09375 -0.78125,0 -1.44336,-0.28418 -1.98633,-0.852539 -0.54297,-0.568359 -0.81445,-1.364258 -0.81445,-2.387695 0,-1.007813 0.27344,-1.826172 0.82031,-2.455078 0.54688,-0.628907 1.26172,-0.94336 2.14453,-0.94336 0.44532,0 0.87696,0.104492 1.29492,0.313477 z m 0.38672,2.463867 c -0.043,-0.457031 -0.14257,-0.822266 -0.29882,-1.095703 -0.28907,-0.507813 -0.77149,-0.761719 -1.44727,-0.761719 -0.48438,0 -0.89063,0.174805 -1.21875,0.524414 -0.32812,0.34961 -0.50195,0.793946 -0.52148,1.333008 z"
               style="fill:#000000;fill-opacity:1;fill-rule:nonzero;stroke:none"
               id="path346" /></g><g
             id="g348"
             transform="translate(494,84)"><g
               id="g350" /></g><g
             id="g352" /></g></g></g><g
       id="g354"><g
         id="g356" /></g><g
       id="g358"><g
         id="g360"
         clip-path="url(#clipPath364)"><g
           id="g366" /><g
           id="g368" /></g></g><g
       id="g370"><g
         id="g372"
         clip-path="url(#clipPath376)"><g
           id="g378"
           clip-path="url(#clipPath382)"><g
             id="g384" /></g></g></g><g
       id="g386"><g
         id="g388" /></g><g
       id="g390"><g
         id="g392"
         clip-path="url(#clipPath396)"><g
           id="g398" /><g
           id="g400" /></g></g><g
       id="g402"><g
         id="g404" /></g></g><text
     xml:space="preserve"
     style="font-style:normal;font-weight:normal;font-size:40px;line-height:1.25;font-family:sans-serif;letter-spacing:0px;word-spacing:0px;fill:#000000;fill-opacity:1;stroke:none"
     x="167.91513"
     y="26.844492"
     id="text4715"><tspan
       sodipodi:role="line"
       id="tspan4713"
       x="167.91513"
       y="26.844492"
       style="font-size:5.33333349px">0 1 1 1 0 ... 0</tspan></text>
<text
     xml:space="preserve"
     style="font-style:normal;font-weight:normal;font-size:40px;line-height:1.25;font-family:sans-serif;letter-spacing:0px;word-spacing:0px;fill:#000000;fill-opacity:1;stroke:none"
     x="381.77304"
     y="27.347233"
     id="text4715-1"><tspan
       sodipodi:role="line"
       id="tspan4713-3"
       x="381.77304"
       y="27.347233"
       style="font-size:5.33333349px">0 1 1 1 0 ... 0</tspan></text>
<text
     xml:space="preserve"
     style="font-style:normal;font-weight:normal;font-size:40px;line-height:1.25;font-family:sans-serif;letter-spacing:0px;word-spacing:0px;fill:#000000;fill-opacity:1;stroke:none"
     x="524.44025"
     y="113.71527"
     id="text4715-2"><tspan
       sodipodi:role="line"
       id="tspan4713-1"
       x="524.44025"
       y="113.71527"
       style="font-size:5.33333349px">0 1 1 1 0 ... 0</tspan></text>
<text
     xml:space="preserve"
     style="font-style:normal;font-weight:normal;font-size:40px;line-height:1.25;font-family:sans-serif;letter-spacing:0px;word-spacing:0px;fill:#000000;fill-opacity:1;stroke:none"
     x="529.55835"
     y="259.5813"
     id="text4715-0"><tspan
       sodipodi:role="line"
       id="tspan4713-2"
       x="529.55835"
       y="259.5813"
       style="font-size:5.33333349px">0 1 1 1 0 ... 0</tspan></text>
<text
     xml:space="preserve"
     style="font-style:normal;font-weight:normal;font-size:40px;line-height:1.25;font-family:sans-serif;letter-spacing:0px;word-spacing:0px;fill:#000000;fill-opacity:1;stroke:none"
     x="383.69235"
     y="354.26627"
     id="text4715-0-6"><tspan
       sodipodi:role="line"
       id="tspan4713-2-7"
       x="383.69235"
       y="354.26627"
       style="font-size:5.33333349px">0 1 1 1 0 ... 0</tspan></text>
<text
     xml:space="preserve"
     style="font-style:normal;font-weight:normal;font-size:40px;line-height:1.25;font-family:sans-serif;letter-spacing:0px;word-spacing:0px;fill:#000000;fill-opacity:1;stroke:none"
     x="168.73189"
     y="354.26627"
     id="text4715-0-6-6"><tspan
       sodipodi:role="line"
       id="tspan4713-2-7-3"
       x="168.73189"
       y="354.26627"
       style="font-size:5.33333349px">0 1 1 1 0 ... 0</tspan></text>
</svg>